<?xml version="1.0" encoding="iso-8859-1"?>
<!-- Generator: Adobe Illustrator 19.0.0, SVG Export Plug-In . SVG Version: 6.00 Build 0)  -->
<svg version="1.1" id="Capa_1" xmlns="http://www.w3.org/2000/svg" xmlns:xlink="http://www.w3.org/1999/xlink" x="0px" y="0px"
	 viewBox="0 0 512 512" style="enable-background:new 0 0 512 512;" xml:space="preserve">
<g>
	<g>
		<polygon style="fill:#C03A2B;" points="432.552,423.724 512,423.724 467.862,467.862 512,512 353.103,512 353.103,459.034 		"/>
		<polygon style="fill:#C03A2B;" points="79.448,423.724 0,423.724 44.138,467.862 0,512 158.897,512 158.897,459.034 		"/>
	</g>
	<path style="fill:#E64C3C;" d="M88.276,370.759h335.448c4.875,0,8.828,3.952,8.828,8.828v70.621c0,4.875-3.952,8.828-8.828,8.828
		H88.276c-4.875,0-8.828-3.952-8.828-8.828v-70.621C79.448,374.711,83.401,370.759,88.276,370.759z"/>
	<g>
		<polygon style="fill:#F29C1F;" points="70.621,185.379 92.442,228.97 141.241,235.953 105.931,269.886 114.264,317.793 
			70.621,295.177 26.977,317.793 35.31,269.886 0,235.953 48.799,228.97 		"/>
		<polygon style="fill:#F29C1F;" points="441.379,185.379 463.201,228.97 512,235.953 476.69,269.886 485.023,317.793 
			441.379,295.177 397.736,317.793 406.069,269.886 370.759,235.953 419.558,228.97 		"/>
	</g>
	<polygon style="fill:#F0C419;" points="256,0 294.188,72.642 379.586,84.295 317.793,140.844 332.376,220.69 256,182.987 
		179.624,220.69 194.207,140.844 132.414,84.295 217.812,72.642 	"/>
</g>
<g>
</g>
<g>
</g>
<g>
</g>
<g>
</g>
<g>
</g>
<g>
</g>
<g>
</g>
<g>
</g>
<g>
</g>
<g>
</g>
<g>
</g>
<g>
</g>
<g>
</g>
<g>
</g>
<g>
</g>
</svg>
