<svg width="77" height="110" xmlns="http://www.w3.org/2000/svg"><g fill-rule="nonzero" fill="none"><path d="M66.215 15.315a36.398 36.398 0 00-6.346-6.085l-.078-.052a35.291 35.291 0 00-6.926-4.075c-.208-.098-.41-.202-.65-.286a24.47 24.47 0 00-1.745-.651 28.204 28.204 0 00-1.478-.508 39.812 39.812 0 00-1.503-.443 29.737 29.737 0 00-1.992-.462c-.397-.084-.794-.175-1.198-.247a37.578 37.578 0 00-3.345-.436c-.95-.078-1.92-.117-2.877-.117-19.681-.04-35.758 15.71-36.124 35.388v1.523c0 .892.045 1.784.13 2.663.058.65.15 1.256.24 1.88.111.73.228 1.452.385 2.168.156.716.312 1.4.5 2.09.164.592.346 1.171.541 1.757.254.761.508 1.523.814 2.271.169.417.364.82.546 1.224a36.274 36.274 0 005.611 8.84 36.053 36.053 0 003.814 3.846 14.17 14.17 0 014.843 10.805V87.87c.004.675.071 1.348.202 2.011.075.352.17.7.286 1.041.072.254.137.508.228.749.19.447.407.882.65 1.302l.137.254c.278.484.591.948.938 1.386a11.26 11.26 0 001.555 1.595c.13.11.26.221.397.325.276.215.563.415.86.599.351.22.716.418 1.093.592.24.117.488.228.742.326.456.176.923.32 1.4.43.182.045.364.084.553.116.577.11 1.163.173 1.75.19v1.45a7.94 7.94 0 1015.882 0v-1.392c.586-.017 1.17-.08 1.745-.189a10.414 10.414 0 002.708-.872 10.83 10.83 0 001.946-1.191c.136-.104.26-.215.39-.32a10.974 10.974 0 002.5-2.993l.13-.241c.237-.43.444-.876.618-1.334.091-.241.156-.489.228-.736.115-.348.21-.702.286-1.06a9.972 9.972 0 00.202-1.986v-11.41a14.372 14.372 0 014.901-10.955c14.846-12.773 16.834-35.04 4.485-50.242h.026z" fill="#C5DDFF"/><path d="M38.129 109.883a9.66 9.66 0 01-9.653-9.49 3.183 3.183 0 01-.345-.059l-.65-.13a12.68 12.68 0 01-1.64-.508c-.294-.11-.574-.234-.86-.37-.446-.208-.88-.438-1.302-.69a15.04 15.04 0 01-.983-.69l-.468-.384a13.16 13.16 0 01-1.784-1.83c-.4-.508-.764-1.046-1.087-1.607-.33-.59-.619-1.2-.865-1.83a6.402 6.402 0 01-.209-.65l-.136-.456a9.32 9.32 0 01-.254-.976 12.282 12.282 0 01-.228-2.324V76.414a12.451 12.451 0 00-4.25-9.503 38.402 38.402 0 01-3.99-4.029l-.143-.169a37.751 37.751 0 01-5.735-9.112l-.162-.345a20.411 20.411 0 01-.417-.938 34.58 34.58 0 01-.853-2.382 33.603 33.603 0 01-.566-1.842 43.672 43.672 0 01-.527-2.187 35.119 35.119 0 01-.397-2.271c-.11-.769-.202-1.36-.254-1.953-.091-.918-.117-1.849-.137-2.78v-.527-1.074c.026-1.496.141-2.989.345-4.471C3.281 14.172 19.237.304 38.09.228c1.003 0 2.019.039 3.015.123 1.184.092 2.35.254 3.501.456.3.052.6.11.892.176l.358.078c.71.15 1.406.306 2.096.495.52.136 1.048.286 1.569.449.52.162 1.04.351 1.555.54a37.46 37.46 0 011.816.69l.436.202a38.402 38.402 0 0114.196 10.798c12.93 15.924 10.845 39.247-4.706 52.624a12.673 12.673 0 00-4.302 9.653V87.87a12.302 12.302 0 01-.241 2.337 9.002 9.002 0 01-.247.956l-.144.488a5.318 5.318 0 01-.208.651 11.86 11.86 0 01-.71 1.523l-.162.306a12.705 12.705 0 01-2.877 3.43l-.43.352c-.338.26-.65.495-1.015.71-.401.24-.816.458-1.243.65-.293.137-.592.267-.892.384-.521.203-1.056.368-1.601.495l-.65.137-.352.058a9.666 9.666 0 01-9.614 9.536zM12.211 60.806a35.538 35.538 0 003.488 3.508 15.875 15.875 0 015.442 12.1V87.87c.003.564.06 1.126.17 1.68.045.227.11.429.168.65l.15.495c.033.123.072.254.117.377.148.392.324.773.527 1.14.263.485.566.95.905 1.386a9.47 9.47 0 001.302 1.34l.338.28c.23.174.471.343.723.508.298.185.607.352.924.501.202.098.41.182.651.267.384.15.777.274 1.178.371l.475.098c.483.09.973.14 1.465.15l1.679.038v3.086a6.229 6.229 0 1012.458 0v-3.073l1.68-.039a9.32 9.32 0 001.464-.143l.481-.104a9.217 9.217 0 001.79-.638c.202-.097.606-.306.899-.488.257-.16.504-.333.742-.52l.306-.254a9.223 9.223 0 002.128-2.539c.246-.419.463-.854.65-1.302l.274-.898c.07-.2.125-.404.163-.612.117-.554.176-1.12.176-1.686v-11.43a16.077 16.077 0 015.5-12.249 34.497 34.497 0 00-8.462-57.597l.072-1.848-.651 1.575c-.534-.228-1.08-.423-1.634-.651-.553-.228-.957-.345-1.432-.488-.475-.144-.95-.293-1.425-.417-.651-.17-1.263-.312-1.907-.449l-1.14-.234a34.153 34.153 0 00-3.189-.417 35.058 35.058 0 00-2.74-.11C19.346 3.561 4.008 18.587 3.684 37.353v1.458c0 .84.046 1.693.124 2.532.045.547.13 1.087.208 1.628.124.852.24 1.542.384 2.226.143.683.3 1.301.482 1.985.182.683.332 1.12.514 1.673.24.735.482 1.458.774 2.174.105.26.228.514.345.774l.176.378a34.217 34.217 0 005.344 8.422l.176.202z" fill="#C5DDFF"/><path d="M66.215 15.315a35.89 35.89 0 00-25.21-13.258c-.95-.078-1.92-.117-2.876-.117a36.19 36.19 0 00-23.523 63.67 14.17 14.17 0 014.843 10.804V87.87c.007 6.044 4.903 10.944 10.947 10.954h15.498c6.04-.018 10.928-4.915 10.935-10.954V76.512a14.372 14.372 0 014.901-10.955c14.846-12.773 16.834-35.04 4.485-50.242z" fill="#C5DDFF"/><path d="M19.429 84.511v3.359c.01 2.464.86 4.852 2.408 6.77h32.577a10.844 10.844 0 002.415-6.77v-3.385l-37.4.026z" fill="#5685EF"/><path d="M20.874 93.233a10.922 10.922 0 009.503 5.617h15.498a10.915 10.915 0 009.503-5.617H20.874z" fill="#0757F5"/><path d="M30.188 97.04H46.07v3.197a7.94 7.94 0 11-15.882 0V97.04z" fill="#0757F5"/><path d="M62.095 11.065a35.87 35.87 0 00-21.09-9.008 36.157 36.157 0 00-30.214 59.706l51.304-50.698z" opacity=".35" fill="#76A3F9"/><path d="M30.188 62.908a19.956 19.956 0 01-7.778-10.186 18.791 18.791 0 012.72-16.559 37.23 37.23 0 015.93-6.509 19.527 19.527 0 006.802-14.488.404.404 0 01.684-.3c4.25 4.016 25.482 25.645 11.598 45.49a.41.41 0 01-.748-.292 8.65 8.65 0 00-2.35-7.596.267.267 0 00-.436.072 11.976 11.976 0 01-3.775 4.335.683.683 0 01-1.087-.573 20.047 20.047 0 00-4.498-13.259.247.247 0 00-.3-.065c-1.412.651-10.765 5.604-6.215 19.527a.364.364 0 01-.547.403z" fill="#4A95ED"/><path d="M38.546 14.853a.41.41 0 00-.684.3A19.527 19.527 0 0131.06 29.64a37.23 37.23 0 00-5.93 6.51 18.986 18.986 0 00-3.254 14.599l25.639-25.294a66.39 66.39 0 00-8.97-10.603z" fill="#0757F5"/><circle fill="#FFF" cx="38.175" cy="73.602" r="5.988"/></g></svg>