<?xml version="1.0" encoding="iso-8859-1"?>
<!-- Generator: Adobe Illustrator 19.0.0, SVG Export Plug-In . SVG Version: 6.00 Build 0)  -->
<svg version="1.1" id="Capa_1" xmlns="http://www.w3.org/2000/svg" xmlns:xlink="http://www.w3.org/1999/xlink" x="0px" y="0px"
	 viewBox="0 0 512 512" style="enable-background:new 0 0 512 512;" xml:space="preserve">
<g>
	<g>
		<path style="fill:#7F8C8D;" d="M35.319,459.034c-3.792,0.007-7.164-2.41-8.376-6.003c-1.212-3.593,0.006-7.558,3.027-9.851
			l220.69-167.724c2.51-1.908,5.847-2.332,8.755-1.112s4.943,3.898,5.341,7.026c0.397,3.128-0.904,6.23-3.414,8.138L40.651,457.233
			C39.12,458.403,37.246,459.036,35.319,459.034z"/>
		<path style="fill:#7F8C8D;" d="M476.681,459.034c-1.927,0.001-3.801-0.632-5.332-1.802l-220.69-167.724
			c-2.51-1.908-3.812-5.01-3.414-8.138c0.397-3.128,2.433-5.806,5.341-7.026s6.245-0.796,8.755,1.112l220.69,167.724
			c3.021,2.292,4.239,6.258,3.027,9.851C483.845,456.624,480.473,459.041,476.681,459.034z"/>
		<path style="fill:#7F8C8D;" d="M256,256c-2.341,0.001-4.587-0.929-6.243-2.585c-1.656-1.656-2.585-3.901-2.585-6.243V97.103
			c0-4.875,3.952-8.828,8.828-8.828s8.828,3.952,8.828,8.828v150.069c0.001,2.341-0.929,4.587-2.585,6.243
			C260.587,255.071,258.341,256.001,256,256z"/>
		<path style="fill:#7F8C8D;" d="M256,459.034c-2.341,0.001-4.587-0.929-6.243-2.585c-1.656-1.656-2.585-3.901-2.585-6.243V282.483
			c0-4.875,3.952-8.828,8.828-8.828s8.828,3.952,8.828,8.828v167.724c0.001,2.341-0.929,4.587-2.585,6.243
			C260.587,458.105,258.341,459.035,256,459.034z"/>
	</g>
	<path style="fill:#41767F;" d="M211.862,220.69h88.276c9.751,0,17.655,7.904,17.655,17.655v52.965
		c0,9.751-7.904,17.655-17.655,17.655h-88.276c-9.751,0-17.655-7.905-17.655-17.655v-52.965
		C194.207,228.594,202.111,220.69,211.862,220.69z"/>
	<g>
		<path style="fill:#67B9CC;" d="M229.517,273.655c-2.352-0.045-4.596-0.992-6.268-2.647c-1.673-1.617-2.6-3.855-2.56-6.181
			c0-4.875,3.952-8.828,8.828-8.828s8.828,3.952,8.828,8.828c0.03,1.158-0.212,2.306-0.707,3.353
			C236.254,271.453,233.07,273.6,229.517,273.655z"/>
		<path style="fill:#67B9CC;" d="M256,273.655c-2.352-0.045-4.596-0.992-6.268-2.647c-1.673-1.617-2.6-3.855-2.56-6.181
			c0.013-1.153,0.251-2.292,0.703-3.353c0.427-1.081,1.058-2.07,1.857-2.914c0.44-0.353,0.879-0.707,1.323-1.06
			c0.491-0.335,1.024-0.602,1.586-0.793c0.528-0.268,1.095-0.449,1.681-0.535c2.88-0.563,5.853,0.33,7.945,2.388
			c1.611,1.693,2.525,3.931,2.56,6.268c0.03,1.158-0.212,2.306-0.707,3.353C262.737,271.453,259.552,273.6,256,273.655z"/>
		<path style="fill:#67B9CC;" d="M282.483,273.655c-4.847-0.068-8.76-3.981-8.828-8.828c0-4.875,3.952-8.828,8.828-8.828
			s8.828,3.952,8.828,8.828c0.038,2.326-0.889,4.563-2.56,6.181C287.077,272.661,284.834,273.608,282.483,273.655z"/>
	</g>
	<path style="fill:#41767F;" d="M17.655,423.724h88.276c9.751,0,17.655,7.905,17.655,17.655v52.966
		c0,9.751-7.904,17.655-17.655,17.655H17.655C7.904,512,0,504.095,0,494.345v-52.966C0,431.629,7.904,423.724,17.655,423.724z"/>
	<g>
		<path style="fill:#67B9CC;" d="M35.31,476.69c-2.348,0.023-4.607-0.9-6.267-2.56c-1.66-1.66-2.583-3.919-2.56-6.267
			c0.033-2.337,0.947-4.576,2.56-6.268c2.556-2.47,6.33-3.198,9.621-1.854c1.08,0.427,2.069,1.056,2.914,1.854
			c1.612,1.693,2.526,3.931,2.561,6.268c0.023,2.348-0.9,4.607-2.56,6.267C39.917,475.79,37.658,476.712,35.31,476.69z"/>
		<path style="fill:#67B9CC;" d="M61.793,476.69c-2.348,0.023-4.607-0.9-6.267-2.56c-1.66-1.66-2.583-3.919-2.56-6.267
			c0.033-2.337,0.947-4.576,2.56-6.268c0.828-0.817,1.819-1.449,2.909-1.854c3.292-1.344,7.068-0.616,9.626,1.854
			c1.611,1.693,2.525,3.931,2.56,6.268c0.023,2.348-0.9,4.607-2.56,6.267C66.4,475.79,64.141,476.712,61.793,476.69z"/>
		<path style="fill:#67B9CC;" d="M88.276,476.69c-2.348,0.023-4.607-0.9-6.267-2.56c-1.66-1.66-2.583-3.919-2.56-6.267
			c0.033-2.337,0.947-4.576,2.56-6.268c0.857-0.779,1.841-1.406,2.909-1.854c3.292-1.343,7.067-0.616,9.625,1.854
			c1.612,1.693,2.526,3.931,2.561,6.268c0.023,2.348-0.9,4.607-2.56,6.267C92.883,475.79,90.624,476.712,88.276,476.69z"/>
	</g>
	<path style="fill:#41767F;" d="M211.862,423.724h88.276c9.751,0,17.655,7.905,17.655,17.655v52.966
		c0,9.751-7.904,17.655-17.655,17.655h-88.276c-9.751,0-17.655-7.905-17.655-17.655v-52.966
		C194.207,431.629,202.111,423.724,211.862,423.724z"/>
	<g>
		<path style="fill:#67B9CC;" d="M229.517,476.69c-2.348,0.023-4.607-0.9-6.267-2.56c-1.66-1.66-2.583-3.919-2.56-6.267
			c0.033-2.337,0.947-4.576,2.56-6.268c3.517-3.325,9.018-3.325,12.534,0c1.612,1.693,2.526,3.931,2.561,6.268
			c0.023,2.348-0.9,4.607-2.56,6.267C234.124,475.79,231.865,476.712,229.517,476.69z"/>
		<path style="fill:#67B9CC;" d="M256,476.69c-2.348,0.023-4.607-0.9-6.267-2.56c-1.66-1.66-2.583-3.919-2.56-6.267
			c0.033-2.337,0.947-4.576,2.56-6.268c2.535-2.509,6.334-3.241,9.621-1.854c1.091,0.406,2.084,1.038,2.914,1.854
			c1.612,1.693,2.526,3.931,2.561,6.268c0.023,2.348-0.9,4.607-2.56,6.267C260.607,475.79,258.348,476.712,256,476.69z"/>
		<path style="fill:#67B9CC;" d="M282.483,476.69c-2.348,0.023-4.607-0.9-6.267-2.56c-1.66-1.66-2.583-3.919-2.56-6.267
			c0-4.875,3.952-8.828,8.828-8.828s8.828,3.952,8.828,8.828c0.023,2.348-0.9,4.607-2.56,6.267
			C287.09,475.79,284.831,476.712,282.483,476.69z"/>
	</g>
	<path style="fill:#41767F;" d="M406.069,423.724h88.276c9.751,0,17.655,7.905,17.655,17.655v52.966
		c0,9.751-7.905,17.655-17.655,17.655h-88.276c-9.751,0-17.655-7.905-17.655-17.655v-52.966
		C388.414,431.629,396.318,423.724,406.069,423.724z"/>
	<g>
		<path style="fill:#67B9CC;" d="M423.724,476.69c-2.348,0.023-4.607-0.9-6.267-2.56c-1.66-1.66-2.583-3.919-2.56-6.267
			c0.033-2.337,0.947-4.576,2.56-6.268c0.828-0.817,1.819-1.449,2.909-1.854c3.292-1.343,7.067-0.616,9.625,1.854
			c1.612,1.693,2.526,3.931,2.561,6.268c0.023,2.348-0.9,4.607-2.56,6.267C428.331,475.79,426.072,476.712,423.724,476.69z"/>
		<path style="fill:#67B9CC;" d="M450.207,476.69c-2.348,0.023-4.607-0.9-6.267-2.56c-1.66-1.66-2.583-3.919-2.56-6.267
			c0.033-2.337,0.947-4.576,2.56-6.268c0.857-0.779,1.841-1.406,2.909-1.854c3.292-1.343,7.067-0.616,9.625,1.854
			c1.612,1.693,2.526,3.931,2.561,6.268c0.023,2.348-0.9,4.607-2.56,6.267C454.814,475.79,452.555,476.712,450.207,476.69z"/>
		<path style="fill:#67B9CC;" d="M476.69,476.69c-2.348,0.023-4.607-0.9-6.267-2.56c-1.66-1.66-2.583-3.919-2.56-6.267
			c0.033-2.337,0.947-4.576,2.56-6.268c2.535-2.509,6.334-3.241,9.621-1.854c1.091,0.406,2.084,1.038,2.914,1.854
			c1.612,1.693,2.526,3.931,2.561,6.268c-0.014,1.153-0.254,2.293-0.707,3.353c-0.45,1.068-1.077,2.053-1.854,2.914
			C481.295,475.788,479.037,476.711,476.69,476.69z"/>
	</g>
	<g>
		<path style="fill:#A5A5A4;" d="M194.207,0h26.483c9.751,0,17.655,7.904,17.655,17.655v26.472h-61.793V17.655
			C176.552,7.904,184.456,0,194.207,0z"/>
		<path style="fill:#A5A5A4;" d="M291.31,0h26.483c9.751,0,17.655,7.904,17.655,17.655v26.472h-61.793V17.655
			C273.655,7.904,281.56,0,291.31,0z"/>
	</g>
	<path style="fill:#BDC3C7;" d="M335.448,26.483H176.552c-35.518-0.014-65.52,26.353-70.068,61.578s17.774,68.348,52.13,77.355
		s70.057-8.904,83.376-41.829h28.019c13.323,32.913,49.016,50.813,83.362,41.806c34.346-9.007,56.661-42.12,52.117-77.335
		S370.956,26.477,335.448,26.483z"/>
	<path style="fill:#A5A5A4;" d="M203.034,88.278h-17.655V70.623c0-4.875-3.952-8.828-8.828-8.828s-8.828,3.952-8.828,8.828v17.655
		h-17.655c-4.875,0-8.828,3.952-8.828,8.828c0,4.875,3.952,8.828,8.828,8.828h17.655v17.655c0,4.875,3.952,8.828,8.828,8.828
		s8.828-3.952,8.828-8.828v-17.655h17.655c4.875,0,8.828-3.952,8.828-8.828C211.862,92.23,207.91,88.278,203.034,88.278z"/>
	<g>
		<path style="fill:#4482C3;" d="M300.138,110.347c-3.57-0.001-6.788-2.152-8.154-5.45c-1.366-3.298-0.611-7.094,1.913-9.619
			l8.828-8.828c2.224-2.259,5.488-3.152,8.552-2.339c3.064,0.812,5.457,3.206,6.269,6.27c0.812,3.064-0.08,6.328-2.339,8.552
			l-8.828,8.828C304.726,109.419,302.48,110.349,300.138,110.347z"/>
		<path style="fill:#4482C3;" d="M335.448,79.45c-3.57-0.001-6.788-2.152-8.154-5.45c-1.366-3.298-0.611-7.094,1.913-9.619
			l8.828-8.828c3.455-3.401,9.006-3.379,12.434,0.049c3.428,3.428,3.45,8.979,0.048,12.434l-8.828,8.828
			C340.036,78.522,337.79,79.453,335.448,79.45z"/>
		<path style="fill:#4482C3;" d="M326.621,141.243c-3.57-0.001-6.788-2.152-8.154-5.45c-1.366-3.298-0.611-7.094,1.913-9.619
			l8.828-8.828c2.224-2.259,5.488-3.152,8.552-2.339c3.064,0.812,5.457,3.206,6.269,6.27c0.812,3.064-0.08,6.328-2.339,8.552
			l-8.828,8.828C331.208,140.315,328.962,141.246,326.621,141.243z"/>
		<path style="fill:#4482C3;" d="M361.931,110.347c-3.57-0.001-6.788-2.152-8.154-5.45c-1.366-3.298-0.611-7.094,1.913-9.619
			l8.828-8.828c2.224-2.259,5.488-3.152,8.552-2.339c3.064,0.812,5.457,3.206,6.269,6.27s-0.081,6.328-2.339,8.552l-8.828,8.828
			C366.519,109.419,364.273,110.349,361.931,110.347z"/>
	</g>
</g>
<g>
</g>
<g>
</g>
<g>
</g>
<g>
</g>
<g>
</g>
<g>
</g>
<g>
</g>
<g>
</g>
<g>
</g>
<g>
</g>
<g>
</g>
<g>
</g>
<g>
</g>
<g>
</g>
<g>
</g>
</svg>
