<?xml version="1.0" encoding="iso-8859-1"?>
<!-- Generator: Adobe Illustrator 19.0.0, SVG Export Plug-In . SVG Version: 6.00 Build 0)  -->
<svg version="1.1" id="Capa_1" xmlns="http://www.w3.org/2000/svg" xmlns:xlink="http://www.w3.org/1999/xlink" x="0px" y="0px"
	 viewBox="0 0 511.785 511.785" style="enable-background:new 0 0 511.785 511.785;" xml:space="preserve">
<g>
	<circle style="fill:#F0785A;" cx="255.893" cy="255.893" r="128"/>
	<g>
		<path style="fill:#BDC3C7;" d="M37.693,381.202c-3.45,0.013-6.566-2.057-7.892-5.242c-1.242-2.325-2.45-4.675-3.625-7.05
			c-2.089-4.225-0.358-9.344,3.867-11.433s9.344-0.358,11.433,3.867c1.208,2.442,2.456,4.861,3.742,7.258
			c1.414,2.65,1.336,5.847-0.204,8.425C43.474,379.606,40.696,381.19,37.693,381.202L37.693,381.202z"/>
		<path style="fill:#BDC3C7;" d="M20.576,341.168c-3.691-0.001-6.963-2.375-8.108-5.883c-1.867-5.708-3.55-11.583-5.025-17.458
			c-0.748-2.963,0.144-6.1,2.34-8.225c2.196-2.125,5.36-2.915,8.297-2.07c2.937,0.845,5.198,3.195,5.93,6.162
			c1.367,5.483,2.942,10.967,4.675,16.292c0.704,2.15,0.524,4.492-0.499,6.51c-1.024,2.018-2.808,3.546-4.959,4.248
			C22.371,341.026,21.476,341.169,20.576,341.168z M9.693,289.718c-4.379-0.001-8.045-3.318-8.483-7.675
			c-0.608-6.075-1.008-12.175-1.192-18.133c-0.135-4.712,3.572-8.642,8.283-8.783h0.258c4.612,0.007,8.385,3.674,8.525,8.283
			c0.158,5.55,0.533,11.242,1.108,16.917c0.472,4.689-2.944,8.874-7.633,9.35C10.268,289.702,9.976,289.718,9.693,289.718z
			 M9.926,237.135c-0.315,0-0.629-0.017-0.942-0.05c-2.25-0.247-4.31-1.378-5.726-3.144s-2.072-4.023-1.824-6.273
			c0.65-5.908,1.525-11.941,2.608-17.95c0.838-4.639,5.277-7.721,9.917-6.883s7.721,5.277,6.883,9.917
			c-1.017,5.617-1.833,11.267-2.442,16.783C17.924,233.857,14.274,237.13,9.926,237.135z M21.176,185.785
			c-2.745-0.001-5.321-1.321-6.925-3.549s-2.038-5.09-1.167-7.693c1.933-5.775,4.083-11.5,6.391-17.033
			c1.173-2.813,3.758-4.787,6.781-5.178s6.025,0.861,7.875,3.283c1.85,2.423,2.267,5.648,1.094,8.462
			c-2.15,5.158-4.158,10.5-5.958,15.883C28.104,183.44,24.845,185.786,21.176,185.785z M43.118,137.96
			c-3.068-0.002-5.9-1.651-7.415-4.319c-1.515-2.668-1.481-5.945,0.089-8.581c3.1-5.2,6.409-10.342,9.85-15.275
			c2.697-3.866,8.017-4.814,11.883-2.117c3.866,2.697,4.814,8.017,2.117,11.883c-3.209,4.592-6.292,9.383-9.183,14.242
			C48.917,136.378,46.128,137.961,43.118,137.96z M74.676,95.885c-3.396-0.001-6.468-2.015-7.823-5.13
			c-1.355-3.114-0.733-6.735,1.581-9.22c4.067-4.367,8.383-8.683,12.817-12.842c2.227-2.084,5.397-2.822,8.315-1.935
			c2.918,0.887,5.142,3.263,5.833,6.233c0.691,2.971-0.255,6.084-2.482,8.168c-4.158,3.883-8.192,7.925-12,12.008
			C79.307,94.904,77.044,95.889,74.676,95.885z M114.368,61.384c-3.73,0.005-7.03-2.413-8.151-5.97
			c-1.12-3.557,0.199-7.43,3.259-9.563c4.958-3.45,10.083-6.767,15.233-9.858c4.044-2.405,9.272-1.084,11.688,2.954
			c2.416,4.038,1.109,9.269-2.922,11.696c-4.817,2.883-9.609,5.975-14.234,9.208C117.812,60.848,116.111,61.383,114.368,61.384
			L114.368,61.384z M160.393,36.052c-4.067,0.001-7.569-2.868-8.369-6.855c-0.8-3.987,1.325-7.985,5.077-9.553
			c5.575-2.333,11.292-4.492,16.975-6.4c4.464-1.505,9.303,0.894,10.808,5.358c1.505,4.464-0.894,9.303-5.358,10.808
			c-5.3,1.792-10.633,3.8-15.842,5.983C162.642,35.829,161.523,36.053,160.393,36.052z M332.193,28.977
			c-0.9,0.001-1.795-0.143-2.65-0.425c-5.3-1.725-10.775-3.292-16.275-4.65c-4.564-1.137-7.346-5.753-6.221-10.32
			s5.735-7.361,10.304-6.247c5.908,1.458,11.792,3.133,17.492,5c3.986,1.303,6.433,5.31,5.774,9.451
			C339.957,25.927,336.386,28.975,332.193,28.977z M210.751,21.06c-4.411-0.005-8.091-3.37-8.489-7.763
			c-0.398-4.393,2.617-8.365,6.955-9.162c5.967-1.1,12.017-1.983,17.967-2.65c4.678-0.506,8.883,2.868,9.402,7.544
			c0.519,4.676-2.844,8.891-7.518,9.422c-5.55,0.617-11.192,1.45-16.767,2.467C211.79,21.014,211.271,21.062,210.751,21.06z
			 M280.718,18.185c-0.283,0-0.567-0.017-0.85-0.042c-5.6-0.558-11.292-0.917-16.925-1.075c-4.711-0.136-8.422-4.063-8.292-8.775
			c0.176-4.694,4.079-8.381,8.775-8.292c6.033,0.175,12.133,0.558,18.125,1.158c4.525,0.449,7.903,4.367,7.68,8.909
			S285.264,18.18,280.718,18.185L280.718,18.185z"/>
		<path style="fill:#BDC3C7;" d="M372.709,46.227c-1.431,0-2.84-0.346-4.108-1.008c-2.4-1.283-4.819-2.531-7.258-3.742
			c-4.225-2.089-5.956-7.208-3.867-11.433c2.089-4.225,7.208-5.956,11.433-3.867c2.517,1.25,5.006,2.533,7.467,3.85
			c3.577,1.722,5.491,5.687,4.615,9.559C380.114,43.458,376.68,46.212,372.709,46.227L372.709,46.227z"/>
		<path style="fill:#BDC3C7;" d="M477.968,155.193c-3.248,0.002-6.216-1.839-7.658-4.75c-1.208-2.442-2.456-4.861-3.742-7.258
			c-1.493-2.777-1.337-6.15,0.407-8.777c1.743-2.627,4.791-4.082,7.93-3.785c3.139,0.297,5.86,2.297,7.08,5.204
			c1.242,2.325,2.45,4.675,3.625,7.05c1.308,2.644,1.158,5.776-0.397,8.283C483.657,153.666,480.917,155.191,477.968,155.193z"/>
		<path style="fill:#BDC3C7;" d="M248.609,511.785h-0.25c-6.033-0.175-12.133-0.558-18.125-1.158
			c-3.043-0.289-5.7-2.184-6.964-4.967c-1.264-2.784-0.942-6.031,0.844-8.512c1.786-2.481,4.762-3.818,7.803-3.504
			c5.6,0.558,11.292,0.917,16.925,1.075c4.663,0.132,8.357,3.984,8.293,8.648C257.072,508.032,253.275,511.781,248.609,511.785
			L248.609,511.785z M283.651,510.351c-4.529-0.004-8.266-3.545-8.514-8.067c-0.248-4.522,3.079-8.45,7.58-8.95
			c5.55-0.617,11.192-1.45,16.767-2.467c4.629-0.84,9.065,2.226,9.915,6.853c0.85,4.628-2.206,9.07-6.832,9.93
			c-5.967,1.1-12.017,1.983-17.967,2.65C284.285,510.334,283.968,510.351,283.651,510.351L283.651,510.351z M196.484,504.701
			c-0.691,0.003-1.38-0.081-2.05-0.25c-5.908-1.458-11.792-3.133-17.492-5c-4.478-1.464-6.922-6.28-5.458-10.758
			c1.464-4.478,6.28-6.922,10.758-5.458c5.3,1.725,10.775,3.292,16.275,4.65c4.187,1.033,6.945,5.027,6.428,9.308
			C204.428,501.474,200.797,504.696,196.484,504.701z M334.984,498.993c-4.178-0.001-7.741-3.028-8.417-7.151
			c-0.676-4.123,1.733-8.13,5.692-9.465c5.3-1.792,10.633-3.8,15.842-5.983c4.349-1.818,9.349,0.234,11.167,4.583
			c1.818,4.349-0.234,9.349-4.583,11.167c-5.575,2.333-11.292,4.492-16.975,6.4C336.832,498.841,335.911,498.994,334.984,498.993
			L334.984,498.993z M382.701,477.001c-3.84,0.005-7.211-2.555-8.236-6.256c-1.025-3.701,0.548-7.631,3.844-9.602
			c4.817-2.883,9.609-5.975,14.234-9.208c3.866-2.697,9.186-1.749,11.883,2.117c2.697,3.866,1.749,9.186-2.117,11.883
			c-4.958,3.45-10.083,6.767-15.233,9.858C385.753,476.583,384.242,477.001,382.701,477.001L382.701,477.001z M424.701,445.393
			c-3.505,0.002-6.654-2.139-7.942-5.398c-1.288-3.26-0.451-6.975,2.109-9.369c4.158-3.883,8.192-7.925,12-12.008
			c2.078-2.23,5.188-3.182,8.158-2.497c2.97,0.685,5.35,2.902,6.242,5.817c0.892,2.915,0.162,6.084-1.917,8.314
			c-4.067,4.367-8.383,8.683-12.817,12.842C428.953,444.574,426.867,445.397,424.701,445.393L424.701,445.393z M459.134,405.651
			c-3.179-0.002-6.093-1.771-7.562-4.589c-1.469-2.819-1.249-6.221,0.57-8.827c3.209-4.592,6.292-9.383,9.183-14.242
			c2.412-4.05,7.65-5.378,11.7-2.967c4.05,2.412,5.378,7.65,2.967,11.7c-3.1,5.2-6.409,10.342-9.85,15.275
			C464.546,404.292,461.927,405.656,459.134,405.651L459.134,405.651z M484.434,359.526c-2.853-0.001-5.516-1.428-7.099-3.802
			c-1.582-2.374-1.873-5.381-0.776-8.015c2.15-5.158,4.158-10.5,5.958-15.883c0.968-2.891,3.404-5.046,6.391-5.653
			c2.987-0.608,6.072,0.425,8.092,2.708c2.02,2.283,2.668,5.471,1.7,8.362c-1.933,5.775-4.083,11.5-6.391,17.033
			C490.983,357.454,487.878,359.524,484.434,359.526L484.434,359.526z M499.351,309.085c-0.511,0-1.022-0.044-1.525-0.133
			c-4.636-0.842-7.716-5.279-6.883-9.917c1.017-5.617,1.833-11.267,2.442-16.783c0.333-3.031,2.258-5.654,5.05-6.88
			c2.791-1.227,6.025-0.871,8.483,0.933c2.458,1.804,3.767,4.783,3.433,7.813c-0.65,5.908-1.525,11.942-2.608,17.95
			C507.006,306.126,503.475,309.078,499.351,309.085L499.351,309.085z M503.226,256.66c-4.612-0.007-8.385-3.674-8.525-8.283
			c-0.158-5.55-0.533-11.242-1.108-16.917c-0.316-3.039,1.016-6.015,3.493-7.803c2.477-1.788,5.721-2.116,8.506-0.86
			c2.785,1.257,4.686,3.906,4.984,6.947c0.608,6.075,1.008,12.175,1.192,18.133c0.135,4.712-3.572,8.642-8.283,8.783H503.226z
			 M496.051,204.56c-3.913-0.007-7.322-2.671-8.275-6.467c-1.367-5.483-2.942-10.967-4.675-16.292
			c-1.464-4.478,0.98-9.295,5.458-10.758s9.295,0.98,10.758,5.458c1.867,5.708,3.55,11.583,5.025,17.458
			c1.138,4.574-1.644,9.206-6.217,10.35C497.446,204.474,496.75,204.558,496.051,204.56L496.051,204.56z"/>
		<path style="fill:#BDC3C7;" d="M146.651,486.493c-1.309-0.001-2.601-0.303-3.775-0.883c-2.517-1.25-5.006-2.533-7.467-3.85
			c-3.577-1.722-5.491-5.687-4.615-9.56c0.876-3.872,4.311-6.627,8.282-6.641c1.431,0.001,2.84,0.346,4.108,1.008
			c2.4,1.283,4.819,2.531,7.258,3.742c3.556,1.758,5.432,5.734,4.528,9.597C154.065,483.769,150.618,486.498,146.651,486.493z"/>
	</g>
	<circle style="fill:#4482C3;" cx="430.826" cy="80.96" r="72.533"/>
	<circle style="fill:#D75E72;" cx="80.959" cy="430.827" r="72.533"/>
	<circle style="fill:#F09372;" cx="255.893" cy="255.893" r="76.8"/>
</g>
<g>
</g>
<g>
</g>
<g>
</g>
<g>
</g>
<g>
</g>
<g>
</g>
<g>
</g>
<g>
</g>
<g>
</g>
<g>
</g>
<g>
</g>
<g>
</g>
<g>
</g>
<g>
</g>
<g>
</g>
</svg>
