<?xml version="1.0" encoding="iso-8859-1"?>
<!-- Generator: Adobe Illustrator 19.0.0, SVG Export Plug-In . SVG Version: 6.00 Build 0)  -->
<svg version="1.1" id="Capa_1" xmlns="http://www.w3.org/2000/svg" xmlns:xlink="http://www.w3.org/1999/xlink" x="0px" y="0px"
	 viewBox="0 0 512 512" style="enable-background:new 0 0 512 512;" xml:space="preserve">
<g>
	<path style="fill:#D1D4D1;" d="M256,512c-19.501,0-35.31-15.809-35.31-35.31v-17.655h70.621v17.655
		C291.31,496.191,275.501,512,256,512z"/>
	<path style="fill:#A5A5A4;" d="M203.034,406.069h105.931v52.966c0,9.751-7.905,17.655-17.655,17.655H220.69
		c-9.751,0-17.655-7.905-17.655-17.655V406.069z"/>
	<g>
		<path style="fill:#F0C419;" d="M378.729,241.229c4.646,38.359-8.96,76.677-36.756,103.518
			c-15.43,14.879-24.157,35.386-24.181,56.821v13.329c0,4.875-3.952,8.828-8.828,8.828H203.034c-4.875,0-8.828-3.952-8.828-8.828
			v-13.259c-0.323-21.913-9.417-42.781-25.248-57.935c-38.447-38.159-47.565-96.907-22.493-144.924s78.49-74.112,131.777-64.373
			S372.263,187.447,378.729,241.229L378.729,241.229z"/>
		<path style="fill:#F0C419;" d="M256,0L256,0c14.626,0,26.483,11.857,26.483,26.483v44.138c0,14.626-11.857,26.483-26.483,26.483
			l0,0c-14.626,0-26.483-11.857-26.483-26.483V26.483C229.517,11.857,241.374,0,256,0z"/>
		<path style="fill:#F0C419;" d="M69.556,69.552L69.556,69.552c10.342-10.342,27.11-10.342,37.452,0l31.21,31.21
			c10.342,10.342,10.342,27.11,0,37.452l0,0c-10.342,10.342-27.11,10.342-37.452,0l-31.21-31.21
			C59.214,96.662,59.214,79.894,69.556,69.552z"/>
		<path style="fill:#F0C419;" d="M0,256L0,256c0-14.626,11.857-26.483,26.483-26.483h44.138c14.626,0,26.483,11.857,26.483,26.483
			l0,0c0,14.626-11.857,26.483-26.483,26.483H26.483C11.857,282.483,0,270.626,0,256z"/>
		<path style="fill:#F0C419;" d="M69.55,442.41L69.55,442.41c-10.342-10.342-10.342-27.11,0-37.452l31.21-31.21
			c10.342-10.342,27.11-10.342,37.452,0l0,0c10.342,10.342,10.342,27.11,0,37.452l-31.21,31.21
			C96.66,452.752,79.892,452.752,69.55,442.41z"/>
		<path style="fill:#F0C419;" d="M442.424,442.418L442.424,442.418c-10.342,10.342-27.11,10.342-37.452,0l-31.21-31.21
			c-10.342-10.342-10.342-27.11,0-37.452l0,0c10.342-10.342,27.11-10.342,37.452,0l31.21,31.21
			C452.766,415.308,452.766,432.076,442.424,442.418z"/>
		<path style="fill:#F0C419;" d="M512,256L512,256c0,14.626-11.857,26.483-26.483,26.483h-44.138
			c-14.626,0-26.483-11.857-26.483-26.483l0,0c0-14.626,11.857-26.483,26.483-26.483h44.138C500.143,229.517,512,241.374,512,256z"
			/>
		<path style="fill:#F0C419;" d="M442.434,69.578L442.434,69.578c10.342,10.342,10.342,27.11,0,37.452l-31.21,31.21
			c-10.342,10.342-27.11,10.342-37.452,0l0,0c-10.342-10.342-10.342-27.11,0-37.452l31.21-31.21
			C415.324,59.236,432.092,59.236,442.434,69.578z"/>
	</g>
</g>
<g>
</g>
<g>
</g>
<g>
</g>
<g>
</g>
<g>
</g>
<g>
</g>
<g>
</g>
<g>
</g>
<g>
</g>
<g>
</g>
<g>
</g>
<g>
</g>
<g>
</g>
<g>
</g>
<g>
</g>
</svg>
