<svg width="110" height="110" xmlns="http://www.w3.org/2000/svg"><g fill-rule="nonzero" fill="none"><circle fill="#C5DDFF" cx="55" cy="55" r="55"/><path d="M98.547 47.298l-10.962-1.275a33.624 33.624 0 00-3.249-7.764l6.871-8.619a2.915 2.915 0 00-.234-3.897l-6.846-6.776a3.01 3.01 0 00-3.937-.227l-8.7 6.82a34.206 34.206 0 00-7.823-3.21l-1.29-10.92a2.98 2.98 0 00-2.945-2.598h-4.833v27.165c10.353-.014 18.848 8.123 19.188 18.38.34 10.258-7.596 18.93-17.928 19.591-.423 0-.842.035-1.26.035v27.165h4.519a2.98 2.98 0 002.945-2.598l1.275-10.802c2.856-.75 5.601-1.863 8.167-3.314l8.68 6.806a3.01 3.01 0 003.937-.232l6.831-6.771a2.944 2.944 0 00.234-3.902l-6.866-8.604a33.267 33.267 0 003.264-7.76l10.962-1.274a2.973 2.973 0 002.62-2.919v-9.581a2.973 2.973 0 00-2.62-2.92z" fill="#0757F5"/><path fill="#5685EF" d="M36.934 20.876h18.467v18.467H36.934z"/><path fill="#76A3F9" d="M21.679 40.949h24.088v23.285H21.679z"/><path fill="#5685EF" d="M40.949 73.869h14.453v14.453H40.949z"/><path fill="#FFF" d="M31.314 66.642h7.226v7.226h-7.226z"/><path fill="#0757F5" d="M7.226 66.642h7.226v7.226H7.226z"/><path fill="#76A3F9" d="M14.453 22.482h5.62v5.62h-5.62z"/><path fill="#FFF" d="M47.372 8.832h4.818v4.818h-4.818zM46.569 93.942h7.226v7.226h-7.226z"/><path fill="#76A3F9" d="M25.693 79.489h11.241V90.73H25.693z"/><path fill="#FFF" d="M21.679 28.102H32.92v11.241H21.679z"/><path d="M70.657 56.603v-3.246a1 1 0 00-.88-.998l-3.698-.43a11.47 11.47 0 00-1.09-2.626l2.31-2.915a.997.997 0 00-.08-1.323l-2.296-2.292a1.002 1.002 0 00-1.32-.075l-2.927 2.307a11.56 11.56 0 00-2.627-1.089l-.435-3.694a1 1 0 00-1-.879h-3.247a1 1 0 00-1.001.879l-.41 3.71c-.958.264-1.876.654-2.732 1.158l-2.907-2.292a1.002 1.002 0 00-1.32.075l-2.142 2.142a.997.997 0 00-.08 1.318l2.297 2.9a11.39 11.39 0 00-1.176 2.846l-3.672.43a1 1 0 00-.88.998v3.026a1 1 0 00.88.998l3.672.43c.262.996.66 1.952 1.18 2.84l-2.29 2.891a.997.997 0 00.074 1.318l2.142 2.142c.358.353.924.385 1.32.075l2.902-2.287c.89.52 1.848.917 2.847 1.179l.43 3.66a1 1 0 001 .878h3.027a1 1 0 001.001-.879l.43-3.72c.96-.251 1.88-.627 2.742-1.118l2.922 2.302c.396.31.962.278 1.32-.075l2.297-2.297a.997.997 0 00.08-1.318l-2.306-2.91a11.47 11.47 0 001.09-2.631l3.692-.435a1 1 0 00.86-.973zm-15.234 4.803a6.45 6.45 0 01-6.303-3.761 6.426 6.426 0 011.312-7.211 6.459 6.459 0 017.226-1.31 6.434 6.434 0 013.768 6.29 6.442 6.442 0 01-6.003 5.992z" fill="#0B37F4"/><circle fill="#0B37F4" cx="55" cy="55" r="2.81"/></g></svg>