<?xml version="1.0" encoding="iso-8859-1"?>
<!-- Generator: Adobe Illustrator 19.0.0, SVG Export Plug-In . SVG Version: 6.00 Build 0)  -->
<svg version="1.1" id="Capa_1" xmlns="http://www.w3.org/2000/svg" xmlns:xlink="http://www.w3.org/1999/xlink" x="0px" y="0px"
	 viewBox="0 0 512 512" style="enable-background:new 0 0 512 512;" xml:space="preserve">
<g>
	<path style="fill:#35495E;" d="M512,35.31v353.103H0L0,35.31c-0.003-9.366,3.717-18.349,10.339-24.971S25.945-0.003,35.31,0H476.69
		c9.366-0.003,18.349,3.717,24.971,10.339C508.283,16.962,512.003,25.945,512,35.31z"/>
	<rect x="123.586" y="0" style="fill:#4482C3;" width="264.828" height="194.207"/>
	<g>
		<path style="fill:#2C3E50;" d="M123.586,194.207L0,300.138L0,35.31c-0.003-9.366,3.717-18.349,10.339-24.971S25.945-0.003,35.31,0
			l88.276,0V194.207z"/>
		<path style="fill:#2C3E50;" d="M512,35.31v264.828L388.414,194.207V0l88.276,0c9.366-0.003,18.349,3.717,24.971,10.339
			C508.283,16.962,512.003,25.945,512,35.31z"/>
	</g>
	<rect x="0" y="300.138" style="fill:#E6E7E8;" width="512" height="88.276"/>
	<rect x="185.379" y="423.724" style="fill:#BDC3C7;" width="141.241" height="70.621"/>
	<g>
		<path style="fill:#95A5A5;" d="M512,370.759v35.31c0.003,9.366-3.717,18.348-10.339,24.971
			c-6.623,6.622-15.605,10.342-24.971,10.339H35.31c-9.366,0.003-18.348-3.717-24.971-10.339C3.717,424.417-0.003,415.435,0,406.069
			l0-35.31H512z"/>
		<rect x="114.759" y="476.69" style="fill:#95A5A5;" width="282.483" height="35.31"/>
	</g>
	<rect x="203.034" y="300.138" style="fill:#7F8C8D;" width="105.931" height="70.621"/>
	<g>
		<path style="fill:#95A5A5;" d="M35.31,344.276c-1.153-0.014-2.293-0.254-3.353-0.707c-1.07-0.446-2.056-1.073-2.914-1.853
			c-0.778-0.859-1.405-1.845-1.854-2.914c-0.452-1.061-0.692-2.2-0.706-3.354c0.015-0.592,0.072-1.183,0.172-1.767
			c0.1-0.552,0.28-1.086,0.535-1.586c0.405-1.091,1.036-2.085,1.853-2.914c0.844-0.799,1.833-1.428,2.914-1.854
			c2.139-0.931,4.568-0.931,6.707,0c1.069,0.449,2.054,1.075,2.914,1.854c1.612,1.693,2.526,3.931,2.561,6.268
			c0.023,2.348-0.9,4.607-2.56,6.267C39.917,343.376,37.658,344.299,35.31,344.276z"/>
		<path style="fill:#95A5A5;" d="M61.793,344.276c-2.348,0.023-4.607-0.899-6.268-2.56c-0.776-0.881-1.431-1.86-1.948-2.914
			c-0.422-1.067-0.63-2.207-0.612-3.354c-0.021-3.586,2.13-6.829,5.442-8.204c3.312-1.375,7.127-0.61,9.653,1.937
			c0.799,0.844,1.428,1.833,1.854,2.914c0.943,2.136,0.943,4.571,0,6.707c-0.449,1.069-1.075,2.054-1.854,2.914
			c-0.859,0.778-1.845,1.405-2.914,1.854C64.086,344.022,62.946,344.262,61.793,344.276z"/>
		<path style="fill:#95A5A5;" d="M88.276,344.276c-1.153-0.014-2.293-0.254-3.353-0.707c-1.07-0.447-2.056-1.074-2.914-1.854
			c-1.661-1.66-2.584-3.919-2.56-6.267c-0.032-1.158,0.21-2.307,0.707-3.353c0.426-1.081,1.055-2.07,1.854-2.914
			c0.418-0.379,0.859-0.733,1.319-1.06c0.493-0.336,1.03-0.603,1.595-0.793c0.5-0.255,1.034-0.435,1.586-0.534
			c2.909-0.59,5.92,0.305,8.035,2.388c0.799,0.844,1.428,1.833,1.854,2.914c1.409,3.284,0.675,7.096-1.854,9.621
			c-0.859,0.778-1.845,1.405-2.914,1.854C90.569,344.022,89.429,344.262,88.276,344.276z"/>
		<path style="fill:#95A5A5;" d="M114.759,344.276c-2.953,0.031-5.722-1.433-7.361-3.89c-1.638-2.457-1.924-5.576-0.76-8.291
			c0.426-1.081,1.055-2.07,1.854-2.914l1.319-1.06c0.493-0.336,1.03-0.603,1.595-0.793c0.5-0.255,1.034-0.435,1.586-0.534
			c1.132-0.259,2.308-0.259,3.44,0c0.586,0.086,1.153,0.267,1.681,0.534c0.563,0.191,1.096,0.457,1.586,0.793
			c0.44,0.353,0.888,0.707,1.328,1.06c1.611,1.693,2.525,3.931,2.56,6.267c0.023,2.348-0.9,4.607-2.56,6.267
			C119.365,343.376,117.107,344.299,114.759,344.276z"/>
		<path style="fill:#95A5A5;" d="M141.241,344.276c-1.153-0.014-2.293-0.254-3.353-0.707c-1.081-0.426-2.07-1.055-2.914-1.854
			c-0.778-0.859-1.405-1.845-1.854-2.914c-0.943-2.136-0.943-4.571,0-6.707c0.447-1.07,1.074-2.056,1.854-2.914
			c0.844-0.799,1.833-1.428,2.914-1.854c1.577-0.703,3.336-0.89,5.026-0.535c0.586,0.086,1.153,0.267,1.681,0.535
			c0.563,0.191,1.096,0.457,1.586,0.793c0.463,0.327,0.907,0.681,1.328,1.061c0.799,0.844,1.428,1.833,1.854,2.914
			c1.409,3.284,0.675,7.096-1.854,9.621c-0.845,0.797-1.834,1.426-2.914,1.854C143.534,344.022,142.395,344.262,141.241,344.276z"/>
		<path style="fill:#95A5A5;" d="M167.724,344.276c-2.348,0.023-4.607-0.9-6.267-2.56c-1.66-1.66-2.583-3.919-2.56-6.267
			c-0.009-2.346,0.911-4.599,2.56-6.268c0.418-0.379,0.859-0.733,1.319-1.06c0.493-0.336,1.03-0.603,1.595-0.793
			c0.5-0.255,1.034-0.435,1.586-0.535c2.908-0.577,5.914,0.316,8.035,2.388c1.611,1.693,2.525,3.931,2.56,6.268
			c0.023,2.348-0.9,4.607-2.56,6.267C172.331,343.376,170.072,344.299,167.724,344.276z"/>
		<path style="fill:#95A5A5;" d="M344.276,344.276c-2.348,0.023-4.607-0.9-6.267-2.56c-1.66-1.66-2.583-3.919-2.56-6.267
			c0.013-2.341,0.93-4.587,2.56-6.268c2.09-2.057,5.061-2.951,7.94-2.388c0.586,0.086,1.153,0.267,1.681,0.535
			c0.543,0.174,1.051,0.442,1.5,0.793c0.507,0.304,0.98,0.66,1.415,1.06c1.611,1.693,2.526,3.931,2.56,6.268
			c0.023,2.348-0.9,4.607-2.56,6.267C348.883,343.376,346.624,344.299,344.276,344.276z"/>
		<path style="fill:#95A5A5;" d="M370.759,344.276c-2.348,0.023-4.607-0.899-6.268-2.56c-0.778-0.859-1.405-1.845-1.854-2.914
			c-0.452-1.061-0.692-2.2-0.706-3.354c0.031-2.338,0.945-4.577,2.56-6.268c0.844-0.799,1.833-1.428,2.914-1.854
			c1.609-0.708,3.4-0.895,5.121-0.535c0.552,0.101,1.086,0.281,1.586,0.535c0.563,0.191,1.096,0.457,1.586,0.793
			c0.463,0.327,0.907,0.681,1.328,1.061c1.611,1.693,2.526,3.931,2.56,6.268c0.023,2.348-0.9,4.607-2.56,6.267
			C375.365,343.376,373.107,344.299,370.759,344.276z"/>
		<path style="fill:#95A5A5;" d="M397.241,344.276c-2.348,0.023-4.607-0.9-6.267-2.56c-1.66-1.66-2.583-3.919-2.56-6.267
			c0-4.875,3.952-8.828,8.828-8.828c4.875,0,8.828,3.952,8.828,8.828c0.023,2.348-0.9,4.607-2.56,6.267
			C401.848,343.376,399.59,344.299,397.241,344.276z"/>
		<path style="fill:#95A5A5;" d="M423.724,344.276c-2.348,0.023-4.607-0.9-6.267-2.56c-1.66-1.66-2.583-3.919-2.56-6.267
			c0.013-2.341,0.93-4.587,2.56-6.268c0.418-0.379,0.859-0.733,1.319-1.06c0.493-0.336,1.03-0.603,1.595-0.793
			c3.291-1.343,7.065-0.616,9.621,1.854c1.612,1.693,2.526,3.93,2.561,6.267c0.02,2.348-0.902,4.605-2.56,6.268
			c-0.859,0.778-1.845,1.405-2.914,1.854C426.017,344.022,424.878,344.262,423.724,344.276z"/>
		<path style="fill:#95A5A5;" d="M450.207,344.276c-2.348,0.023-4.607-0.899-6.268-2.56c-0.778-0.859-1.405-1.845-1.854-2.914
			c-0.497-1.047-0.739-2.196-0.706-3.354c0.014-1.153,0.254-2.293,0.707-3.353c0.426-1.081,1.055-2.07,1.854-2.914
			c0.418-0.379,0.859-0.733,1.319-1.06c0.493-0.336,1.03-0.603,1.595-0.793c3.291-1.343,7.065-0.616,9.621,1.854
			c0.799,0.844,1.428,1.833,1.854,2.914c0.943,2.136,0.943,4.571,0,6.707c-0.449,1.069-1.075,2.054-1.854,2.914
			C454.812,343.374,452.555,344.296,450.207,344.276z"/>
		<path style="fill:#95A5A5;" d="M476.69,344.276c-2.348,0.023-4.607-0.899-6.268-2.56c-0.778-0.859-1.405-1.845-1.854-2.914
			c-0.943-2.136-0.943-4.571,0-6.707c0.447-1.07,1.074-2.056,1.854-2.914c3.539-3.267,8.995-3.267,12.534,0
			c0.78,0.858,1.407,1.844,1.854,2.914c0.943,2.136,0.943,4.571,0,6.707c-0.449,1.069-1.075,2.054-1.854,2.914
			C481.294,343.374,479.037,344.296,476.69,344.276z"/>
	</g>
	<g>
		<path style="fill:#E6E7E8;" d="M256,141.241c-29.252,0-52.966-23.713-52.966-52.966S226.748,35.31,256,35.31
			s52.966,23.713,52.966,52.966C308.934,117.515,285.239,141.209,256,141.241z M256,52.966c-19.501,0-35.31,15.809-35.31,35.31
			s15.809,35.31,35.31,35.31s35.31-15.809,35.31-35.31C291.291,68.783,275.493,52.985,256,52.966z"/>
		<path style="fill:#E6E7E8;" d="M229.517,97.103h-26.483c-4.875,0-8.828-3.952-8.828-8.828c0-4.875,3.952-8.828,8.828-8.828h26.483
			c4.875,0,8.828,3.952,8.828,8.828C238.345,93.151,234.393,97.103,229.517,97.103z"/>
		<path style="fill:#E6E7E8;" d="M308.966,97.103h-26.483c-4.875,0-8.828-3.952-8.828-8.828c0-4.875,3.952-8.828,8.828-8.828h26.483
			c4.875,0,8.828,3.952,8.828,8.828C317.793,93.151,313.841,97.103,308.966,97.103z"/>
		<path style="fill:#E6E7E8;" d="M256,150.069c-2.342,0.001-4.588-0.928-6.244-2.584s-2.585-3.902-2.584-6.244v-26.483
			c0-4.875,3.952-8.828,8.828-8.828s8.828,3.952,8.828,8.828v26.483c0.001,2.342-0.928,4.588-2.584,6.244
			C260.588,149.141,258.342,150.07,256,150.069z"/>
		<path style="fill:#E6E7E8;" d="M256,70.621c-2.342,0.001-4.588-0.928-6.244-2.584c-1.656-1.656-2.585-3.902-2.584-6.244V35.31
			c0-4.875,3.952-8.828,8.828-8.828s8.828,3.952,8.828,8.828v26.483c0.001,2.342-0.928,4.588-2.584,6.244
			C260.588,69.692,258.342,70.622,256,70.621z"/>
	</g>
	<path style="fill:#BDC3C7;" d="M291.31,211.862v88.276H220.69v-88.276c0.028-9.739,7.916-17.627,17.655-17.655h35.31
		C283.394,194.235,291.282,202.123,291.31,211.862z"/>
	<path style="fill:#E6E7E8;" d="M264.828,194.207v26.483c0,4.875-3.952,8.828-8.828,8.828s-8.828-3.952-8.828-8.828v-26.483H264.828
		z"/>
</g>
<g>
</g>
<g>
</g>
<g>
</g>
<g>
</g>
<g>
</g>
<g>
</g>
<g>
</g>
<g>
</g>
<g>
</g>
<g>
</g>
<g>
</g>
<g>
</g>
<g>
</g>
<g>
</g>
<g>
</g>
</svg>
