<?xml version="1.0" encoding="iso-8859-1"?>
<!-- Generator: Adobe Illustrator 19.0.0, SVG Export Plug-In . SVG Version: 6.00 Build 0)  -->
<svg version="1.1" id="Capa_1" xmlns="http://www.w3.org/2000/svg" xmlns:xlink="http://www.w3.org/1999/xlink" x="0px" y="0px"
	 viewBox="0 0 512 512" style="enable-background:new 0 0 512 512;" xml:space="preserve">
<g>
	<path style="fill:#D1D4D1;" d="M203.034,471.393c0.014,10.54-4.167,20.652-11.619,28.105c-7.453,7.453-17.565,11.633-28.105,11.619
		l-163.31,0l0-145.655c-0.006-15.909,9.483-30.285,24.113-36.533s31.577-3.161,43.065,7.844
		c7.031-12.325,20.15-19.913,34.339-19.862c1.059,0,2.207,0.088,3.266,0.177c0.441,0.971,9.181-0.088,9.975,0.706l79.448,79.448
		c0.177,0.177-0.706,9.357-0.53,9.445c-1.575,11.134-7.883,21.046-17.302,27.189C192.35,439.42,203.054,454.483,203.034,471.393z"/>
	<g>
		<path style="fill:#A5A5A4;" d="M158.897,434.763c-0.988,0-1.969-0.168-2.901-0.496c-4.322-1.516-8.932-2.036-13.483-1.521
			c-3.135,0.403-6.247-0.901-8.158-3.419s-2.329-5.866-1.097-8.777c1.232-2.911,3.927-4.941,7.065-5.321
			c7.245-0.835,14.585-0.026,21.474,2.366c4.067,1.417,6.518,5.562,5.801,9.809S163.204,434.76,158.897,434.763z"/>
		<path style="fill:#A5A5A4;" d="M88.267,388.414c-4.698-0.004-8.569-3.688-8.806-8.379c-0.387-7.805-3.772-15.159-9.448-20.53
			c-2.287-2.173-3.241-5.401-2.502-8.468c0.738-3.067,3.057-5.507,6.082-6.401c3.025-0.894,6.297-0.106,8.584,2.067
			c8.963,8.487,14.306,20.106,14.914,32.435c0.12,2.338-0.694,4.628-2.263,6.366s-3.765,2.78-6.103,2.897
			C88.573,388.409,88.418,388.414,88.267,388.414z"/>
	</g>
	<path style="fill:#95A5A5;" d="M220.954,371.641l-12.977,32.221c-1.149,2.679-3.546,4.619-6.405,5.184
		c-2.86,0.565-5.814-0.318-7.895-2.359c-0.168-0.09-0.317-0.209-0.441-0.353l-86.599-86.599c-0.773-0.763-1.401-1.661-1.854-2.648
		c-1.175-2.154-1.375-4.707-0.548-7.017c0.826-2.31,2.6-4.157,4.874-5.077l32.221-12.977l8.739-9.534l79.448,79.448L220.954,371.641
		z"/>
	<path style="fill:#BDC3C7;" d="M494.345,88.276l-79.448-70.621l-35.134,11.741h-0.088c-39.759,17.601-75.914,42.413-106.637,73.181
		l-10.681,10.681h-46.61c-42.115,0.014-82.502,16.747-112.287,46.521l-28.425,28.425c-1.653,1.649-2.582,3.888-2.582,6.223
		c0,2.335,0.929,4.574,2.582,6.223l49.964,49.964c-6.885,6.904-6.885,18.078,0,24.982l112.375,112.375
		c6.904,6.886,18.078,6.886,24.982,0l49.876,49.876c3.469,3.443,9.066,3.443,12.535,0l28.337-28.337
		c29.812-29.796,46.549-70.226,46.521-112.375v-46.521l10.77-10.77c30.787-30.707,55.602-66.866,73.181-106.637L494.345,88.276z"/>
	<path style="fill:#CC4B4C;" d="M512,0.883c-0.122,44.052-9.161,87.623-26.571,128.088l-1.854,4.237l-2.825-1.236l-99.84-99.84
		l-1.148-2.737C421.364,10.751,466.412,1.038,512,0.883z"/>
	<g>
		<circle style="fill:#67B9CC;" cx="355.928" cy="156.972" r="44.138"/>
		<circle style="fill:#67B9CC;" cx="256.088" cy="256.883" r="44.138"/>
	</g>
	<g>
		<path style="fill:#95A5A5;" d="M262.356,113.258L124.999,250.615l-49.964-49.964c-1.653-1.649-2.582-3.888-2.582-6.223
			c0-2.335,0.929-4.574,2.582-6.223l28.425-28.425c29.785-29.775,70.172-46.507,112.287-46.521H262.356z"/>
		<path style="fill:#95A5A5;" d="M399.625,250.615l0,46.521c0.028,42.149-16.71,82.579-46.521,112.375l-28.337,28.337
			c-3.469,3.443-9.066,3.443-12.535,0l-49.876-49.876L399.625,250.615z"/>
	</g>
</g>
<g>
</g>
<g>
</g>
<g>
</g>
<g>
</g>
<g>
</g>
<g>
</g>
<g>
</g>
<g>
</g>
<g>
</g>
<g>
</g>
<g>
</g>
<g>
</g>
<g>
</g>
<g>
</g>
<g>
</g>
</svg>
