<?xml version="1.0" encoding="iso-8859-1"?>
<!-- Generator: Adobe Illustrator 19.0.0, SVG Export Plug-In . SVG Version: 6.00 Build 0)  -->
<svg version="1.1" id="Capa_1" xmlns="http://www.w3.org/2000/svg" xmlns:xlink="http://www.w3.org/1999/xlink" x="0px" y="0px"
	 viewBox="0 0 512 512" style="enable-background:new 0 0 512 512;" xml:space="preserve">
<g>
	<path style="fill:#35495E;" d="M459.034,44.138v441.379H17.655C7.916,485.489,0.029,477.601,0,467.862V44.138H459.034z"/>
	<path style="fill:#A5A5A4;" d="M459.034,17.655v52.966H0V17.655C0.028,7.916,7.916,0.028,17.655,0h423.724
		C451.118,0.028,459.006,7.916,459.034,17.655z"/>
	<path style="fill:#CC4B4C;" d="M35.31,44.138c-2.337-0.035-4.575-0.949-6.268-2.56c-3.414-3.481-3.414-9.054,0-12.535
		c3.54-3.268,8.996-3.268,12.535,0c3.414,3.481,3.414,9.054,0,12.535C39.885,43.189,37.647,44.103,35.31,44.138z"/>
	<path style="fill:#F0C419;" d="M70.621,44.138c-2.348,0.023-4.607-0.9-6.267-2.56c-1.66-1.66-2.583-3.919-2.56-6.267
		c0.014-0.593,0.073-1.184,0.177-1.767c0.095-0.554,0.272-1.09,0.526-1.59c0.195-0.562,0.463-1.095,0.797-1.586
		c0.353-0.444,0.707-0.884,1.06-1.323c3.539-3.268,8.995-3.268,12.535,0c0.353,0.44,0.707,0.879,1.056,1.323
		c0.334,0.491,0.603,1.025,0.797,1.586c0.253,0.502,0.432,1.038,0.53,1.591c0.102,0.584,0.161,1.175,0.177,1.767
		c0.023,2.348-0.9,4.607-2.56,6.267C75.227,43.238,72.969,44.161,70.621,44.138z"/>
	<path style="fill:#14A085;" d="M105.931,44.138c-1.155-0.014-2.296-0.254-3.358-0.707c-1.068-0.449-2.051-1.076-2.91-1.853
		c-3.414-3.481-3.414-9.054,0-12.534c0.857-0.78,1.841-1.409,2.909-1.858c2.151-0.879,4.561-0.879,6.711,0
		c1.07,0.449,2.056,1.077,2.915,1.857c3.414,3.481,3.414,9.054,0,12.534c-0.86,0.778-1.845,1.405-2.914,1.854
		C108.224,43.884,107.084,44.124,105.931,44.138z"/>
	<g>
		<path style="fill:#F29C1F;" d="M132.414,123.586H44.138c-4.875,0-8.828-3.952-8.828-8.828s3.952-8.828,8.828-8.828h88.276
			c4.875,0,8.828,3.952,8.828,8.828S137.289,123.586,132.414,123.586z"/>
		<path style="fill:#F29C1F;" d="M132.414,158.897H70.621c-4.875,0-8.828-3.952-8.828-8.828s3.952-8.828,8.828-8.828h61.793
			c4.875,0,8.828,3.952,8.828,8.828S137.289,158.897,132.414,158.897z"/>
	</g>
	<g>
		<path style="fill:#14A085;" d="M335.448,194.207H44.138c-4.875,0-8.828-3.952-8.828-8.828c0-4.875,3.952-8.828,8.828-8.828h291.31
			c4.875,0,8.828,3.952,8.828,8.828C344.276,190.255,340.324,194.207,335.448,194.207z"/>
		<path style="fill:#14A085;" d="M308.966,229.517H44.138c-4.875,0-8.828-3.952-8.828-8.828s3.952-8.828,8.828-8.828h264.828
			c4.875,0,8.828,3.952,8.828,8.828S313.841,229.517,308.966,229.517z"/>
	</g>
	<g>
		<path style="fill:#F29C1F;" d="M79.448,264.828h-35.31c-4.875,0-8.828-3.952-8.828-8.828s3.952-8.828,8.828-8.828h35.31
			c4.875,0,8.828,3.952,8.828,8.828S84.324,264.828,79.448,264.828z"/>
		<path style="fill:#F29C1F;" d="M185.379,300.138H61.793c-4.875,0-8.828-3.952-8.828-8.828s3.952-8.828,8.828-8.828h123.586
			c4.875,0,8.828,3.952,8.828,8.828S190.255,300.138,185.379,300.138z"/>
		<path style="fill:#F29C1F;" d="M167.724,370.759H61.793c-4.875,0-8.828-3.952-8.828-8.828s3.952-8.828,8.828-8.828h105.931
			c4.875,0,8.828,3.952,8.828,8.828S172.599,370.759,167.724,370.759z"/>
	</g>
	<path style="fill:#14A085;" d="M176.552,406.069H79.448c-4.875,0-8.828-3.952-8.828-8.828c0-4.875,3.952-8.828,8.828-8.828h97.103
		c4.875,0,8.828,3.952,8.828,8.828C185.379,402.117,181.427,406.069,176.552,406.069z"/>
	<g>
		<path style="fill:#F29C1F;" d="M123.586,335.448H44.138c-4.875,0-8.828-3.952-8.828-8.828s3.952-8.828,8.828-8.828h79.448
			c4.875,0,8.828,3.952,8.828,8.828S128.462,335.448,123.586,335.448z"/>
		<path style="fill:#F29C1F;" d="M176.552,450.207H44.138c-4.875,0-8.828-3.952-8.828-8.828s3.952-8.828,8.828-8.828h132.414
			c4.875,0,8.828,3.952,8.828,8.828S181.427,450.207,176.552,450.207z"/>
	</g>
	<path style="fill:#14A085;" d="M150.069,264.828h-35.31c-4.875,0-8.828-3.952-8.828-8.828s3.952-8.828,8.828-8.828h35.31
		c4.875,0,8.828,3.952,8.828,8.828S154.944,264.828,150.069,264.828z"/>
	<path style="fill:#BDC3C7;" d="M264.828,441.379l56.492-72.632c3.345-4.301,8.488-6.816,13.936-6.816h106.316
		c5.448,0,10.591,2.515,13.936,6.816L512,441.379v26.483H264.828V441.379z"/>
	<path style="fill:#A5A5A4;" d="M406.069,287.691v100.723c0,4.875-3.952,8.828-8.828,8.828h-17.655
		c-4.875,0-8.828-3.952-8.828-8.828V287.691H406.069z"/>
	<circle style="fill:#CC4B4C;" cx="388.414" cy="247.172" r="44.138"/>
	<path style="fill:#95A5A5;" d="M264.828,441.379H512v52.966c0,9.751-7.905,17.655-17.655,17.655H282.483
		c-9.751,0-17.655-7.905-17.655-17.655V441.379z"/>
</g>
<g>
</g>
<g>
</g>
<g>
</g>
<g>
</g>
<g>
</g>
<g>
</g>
<g>
</g>
<g>
</g>
<g>
</g>
<g>
</g>
<g>
</g>
<g>
</g>
<g>
</g>
<g>
</g>
<g>
</g>
</svg>
