<svg width="101" height="110" xmlns="http://www.w3.org/2000/svg"><g fill-rule="nonzero" fill="none"><path d="M15.413 109.275l-2.51-11.704a.296.296 0 00-.296-.237l-11.961.27a.296.296 0 01-.238-.481l17.574-22.244a.303.303 0 01.415-.046l15.064 11.902c.129.1.152.286.053.415l-17.58 22.244a.296.296 0 01-.52-.119z" fill="#FF9601"/><path d="M25.142 80.162l-6.745-5.33a.303.303 0 00-.415.047L.408 97.123a.296.296 0 00.238.48l11.737-.263 12.759-17.178z" opacity=".3" fill="#E5EEFD"/><path d="M84.904 109.275l2.51-11.704a.296.296 0 01.296-.237l11.962.27a.296.296 0 00.237-.481L82.335 74.879a.303.303 0 00-.415-.046L66.856 86.735a.296.296 0 00-.046.415l17.574 22.244a.296.296 0 00.52-.119z" fill="#FF9601"/><path d="M75.175 80.162l6.745-5.33a.303.303 0 01.415.047L99.91 97.123a.296.296 0 01-.237.48L87.94 97.34 75.175 80.162z" opacity=".3" fill="#E5EEFD"/><path d="M41.227 95.278a15.446 15.446 0 01-13.747-8.332h-.73a15.453 15.453 0 01-15.42-16.164A15.453 15.453 0 015.4 48.722a15.46 15.46 0 015.928-22.065 15.453 15.453 0 0115.42-16.164h.731a15.446 15.446 0 0122.06-5.928 15.446 15.446 0 0122.059 5.928h.738A15.446 15.446 0 0187.75 26.657a15.453 15.453 0 015.928 22.066 15.446 15.446 0 01-5.928 22.059 15.446 15.446 0 01-15.413 16.164h-.738a15.446 15.446 0 01-22.06 5.928 15.357 15.357 0 01-8.312 2.444" fill="#C5DDFF"/><path d="M57.859 97.01a17.126 17.126 0 01-8.32-2.16c-8.093 4.49-18.29 1.758-23.053-6.178-9.26-.155-16.733-7.616-16.902-16.876-7.933-4.765-10.665-14.96-6.179-23.053-4.483-8.095-1.751-18.286 6.179-23.054.162-9.26 7.629-16.727 16.888-16.889C31.236.864 41.432-1.869 49.526 2.622 57.621-1.862 67.812.87 72.58 8.8c9.26.159 16.727 7.629 16.882 16.889 7.93 4.768 10.664 14.957 6.185 23.054 4.482 8.096 1.748 18.288-6.185 23.053-.155 9.26-7.622 16.73-16.882 16.889a17.126 17.126 0 01-14.721 8.326zm-8.32-6.237l.936.6a13.714 13.714 0 0019.59-5.27l.506-.995 1.766.073a13.734 13.734 0 0013.687-14.353l-.06-1.113.989-.507a13.714 13.714 0 005.27-19.583l-.6-.935.6-.936a13.72 13.72 0 00-5.27-19.589l-.988-.507.059-1.113a13.734 13.734 0 00-13.687-14.353l-1.766.066-.507-.988A13.714 13.714 0 0050.474 6l-.934.6-.936-.6a13.7 13.7 0 00-19.582 5.27l-.508.988-1.765-.066a13.72 13.72 0 00-13.687 14.353l.059 1.113-.995.507a13.714 13.714 0 00-5.27 19.59l.6.935-.6.935a13.707 13.707 0 005.27 19.583l.995.507-.06 1.113A13.72 13.72 0 0026.75 85.181l1.759-.066.514.988a13.7 13.7 0 0019.582 5.27l.936-.6z" fill="#C5DDFF"/><path d="M11.33 70.775a15.446 15.446 0 009.392 14.933l57.8-73.918a15.262 15.262 0 00-6.923-1.317 15.453 15.453 0 00-22.06-5.928 15.453 15.453 0 00-22.059 5.928 15.446 15.446 0 00-16.15 16.144A15.46 15.46 0 005.4 48.683a15.453 15.453 0 005.928 22.092z" opacity=".35" fill="#76A3F9"/><circle fill="#5685EF" cx="49.54" cy="48.716" r="31.505"/><path d="M57.582 79.147c13.65-3.605 23.23-15.86 23.436-29.976L57.582 79.147z" fill="#0757F5"/><path d="M49.54 17.205A31.505 31.505 0 0030.207 73.58L69.01 23.95a31.4 31.4 0 00-19.47-6.745z" fill="#76A3F9"/><path d="M59.94 35.661L46.925 52.695a.5.5 0 01-.705.092l-5.382-4.137a.54.54 0 00-.75.1l-3.531 4.61a.54.54 0 00.099.75l9.781 7.49a1.805 1.805 0 002.543-.336l16.407-21.42a.534.534 0 00-.098-.751l-4.611-3.53a.527.527 0 00-.738.098z" fill="#0B37F4"/><path d="M22.692 26.703a10.065 10.065 0 016.514 6.514.29.29 0 00.547 0 10.065 10.065 0 016.514-6.514.29.29 0 000-.553 10.078 10.078 0 01-6.514-6.515.29.29 0 00-.547 0 10.078 10.078 0 01-6.514 6.515.29.29 0 000 .553z" fill="#F0F7FF"/></g></svg>