<svg width="122" height="90" xmlns="http://www.w3.org/2000/svg"><g fill-rule="nonzero" fill="none"><path d="M118.636 89.68H2.455A2.455 2.455 0 010 87.227v-2.863h121.09v2.863a2.455 2.455 0 01-2.454 2.455z" fill="#0B37F4"/><rect fill="#76A3F9" x="9.814" width="101.442" height="64.759" rx="6.61"/><path d="M118.526 86.928H2.549a2.545 2.545 0 01-2.263-3.71l7.945-15.39a5.674 5.674 0 015.036-3.069h94.537a5.67 5.67 0 015.036 3.068l7.944 15.39a2.545 2.545 0 01-2.258 3.71z" fill="#5685EF"/><path fill="#0B37F4" d="M78.877 84.11H40.946l3.49-6.763h30.947z"/><path fill="#C5DDFF" d="M13.962 3.935h93.146v60.828H13.962z"/><path fill="#76A3F9" opacity=".25" d="M13.962 64.76l93.146-60.825V64.76z"/><path d="M85.868 33.807a8.497 8.497 0 00-3.559-6.954.777.777 0 00-.102-.098c.045-.359.069-.72.07-1.08a8.566 8.566 0 00-6.718-8.346 8.538 8.538 0 00-15.672-1.374 8.538 8.538 0 00-15.23.531 8.836 8.836 0 00-.876.221c-.18.041-.36.086-.536.143-.123.04-.24.1-.344.176a8.554 8.554 0 00-5.216 7.839c0 .664.078 1.326.234 1.971a8.55 8.55 0 00-1.064 13.635c.084.129.19.241.315.332.147.098.295.192.442.282-.046.36-.07.722-.07 1.084a8.59 8.59 0 006.718 8.346 8.542 8.542 0 0015.672 1.415 8.542 8.542 0 0015.234-.536 8.55 8.55 0 006.738-10.366 8.501 8.501 0 003.964-7.22z" fill="#5685EF"/><path d="M59.911 15.897l-.024.037a8.538 8.538 0 00-15.23.532 8.836 8.836 0 00-.876.22c-.18.042-.36.087-.536.144-.123.04-.24.1-.344.176a8.554 8.554 0 00-5.216 7.859c0 .664.078 1.326.234 1.971a8.55 8.55 0 00-1.064 13.635c.084.129.19.241.315.332.147.098.295.192.442.282-.046.36-.07.722-.07 1.084a8.59 8.59 0 006.718 8.346 8.542 8.542 0 0015.651 1.44V15.897z" fill="#76A3F9"/><path d="M40.95 48.952a8.497 8.497 0 003.31 1.563 8.542 8.542 0 0015.672 1.415 8.542 8.542 0 0015.234-.536 8.497 8.497 0 004.5-2.454l-38.716.012z" fill="#0757F5"/><path d="M67.414 56.352a8.521 8.521 0 007.45-4.422H59.932a8.558 8.558 0 007.482 4.422zM52.405 56.455a8.562 8.562 0 007.527-4.525H44.869a8.505 8.505 0 007.536 4.525z" fill="#0B37F4"/><path fill="#0757F5" d="M56.95 51.93h5.92v8.206h-5.92z"/><path d="M56.95 55.915v4.459a1.739 1.739 0 001.742 1.738h.491v6.206c0 .41.34-.102.753-.102s.753.52.753.102v-6.206h.441c.96 0 1.74-.778 1.74-1.738v-4.46h-5.92z" fill="#0757F5"/><rect fill="#0757F5" x="12.256" y="67.34" width="95.306" height="1.677" rx=".839"/><path d="M72.818 33.415a.77.77 0 000-1.539h-3.17v-4.5h3.17a.77.77 0 100-1.538h-3.17v-1.595a.994.994 0 00-.994-.994h-1.412v-3.244a.77.77 0 10-1.538 0v3.244h-4.983v-3.244a.773.773 0 00-1.542 0v3.244h-4.5v-3.244a.773.773 0 00-1.542 0v3.244h-1.845a.994.994 0 00-.994.994v1.583h-3.253a.77.77 0 000 1.538h3.245v4.987h-3.245a.773.773 0 000 1.542h3.245v4.5h-3.245a.773.773 0 000 1.542h3.245v1.674c0 .549.445.994.994.994h1.292v3.244a.77.77 0 001.539 0v-3.244H59.1v3.244a.773.773 0 001.543 0v-3.244h4.5v3.244a.773.773 0 001.542 0v-3.244h1.964a.994.994 0 00.994-.994v-1.665h3.174a.773.773 0 000-1.543h-3.17v-4.986h3.17z" fill="#FFF"/><path d="M65.933 28.996a.27.27 0 00-.208-.253c-.896-.242-4.574-1.358-5.675-4.001h-.2c-1.096 2.647-4.778 3.763-5.674 4a.274.274 0 00-.209.254c-.032 1.334.029 8.824 5.805 12.077.111.06.245.06.356 0 5.736-3.24 5.838-10.743 5.805-12.077z" fill="#FF9601"/><path d="M62.497 30.093l-3.179 4.16a.123.123 0 01-.172.025l-1.313-1.007a.13.13 0 00-.184.025l-.863 1.129a.13.13 0 00.024.18l2.394 1.833a.442.442 0 00.621-.082l3.993-5.24a.13.13 0 00-.024-.18l-1.13-.864a.13.13 0 00-.167.02zM85.827 25.826H99.2v1.559H85.827a.777.777 0 01-.777-.778.777.777 0 01.777-.781z" fill="#FFF"/><path fill="#FFF" d="M99.196 13.23v14.15h-1.558V13.23z"/><path fill="#FFF" d="M112.214 14.789H97.646v-1.56h14.568z"/><path fill="#0757F5" d="M102.424 6.026h13.655v15.967h-13.655z"/><path d="M33.296 39.923H21.944v-1.558h11.352a.777.777 0 01.777.777.777.777 0 01-.777.781z" fill="#FFF"/><path fill="#FFF" d="M21.94 52.52V38.368h1.558v14.15z"/><path fill="#FFF" d="M8.93 50.96h14.568v1.559H8.93z"/><path fill="#0B37F4" d="M18.72 59.72H5.065V43.751H18.72z"/><path d="M33.296 27.38H21.944v-1.558h11.352a.777.777 0 01.777.777.777.777 0 01-.777.781z" fill="#FFF"/><rect fill="#FFF" transform="rotate(-180 24.345 33.134)" x="18.278" y="32.355" width="12.134" height="1.559" rx=".779"/><path fill="#FFF" d="M23.498 13.23v14.15H21.94V13.23z"/><path fill="#FFF" d="M8.93 13.23h14.568v1.559H8.93z"/><path fill="#0757F5" d="M18.72 21.993H5.065V6.026H18.72z"/><path d="M85.827 38.373H99.2v1.554H85.827a.777.777 0 01-.777-.777c0-.43.348-.777.777-.777z" fill="#FFF"/><path fill="#FFF" d="M97.642 52.523v-14.15H99.2v14.15z"/><path fill="#FFF" d="M112.214 52.523H97.646v-1.56h14.568z"/><path fill="#0B37F4" d="M102.424 43.76h13.655v15.967h-13.655z"/><rect fill="#FFF" transform="rotate(-180 95.98 32.652)" x="89.914" y="31.872" width="12.134" height="1.559" rx=".779"/><path d="M104.429 9.48c0-.43.349-.779.779-.779h8.084a.78.78 0 010 1.559h-8.084a.78.78 0 01-.78-.78zM104.429 14.01c0-.431.349-.78.779-.78h8.084a.78.78 0 010 1.559h-8.084a.78.78 0 01-.78-.78zM104.429 18.538c0-.43.349-.78.779-.78h8.084a.78.78 0 010 1.56h-8.084a.78.78 0 01-.78-.78z" fill="#0E3FDD"/><path d="M7.073 47.207c0-.43.35-.78.78-.78h8.083a.78.78 0 010 1.56H7.853a.78.78 0 01-.78-.78zM7.073 51.736c0-.43.35-.78.78-.78h8.083a.78.78 0 010 1.559H7.852a.78.78 0 01-.779-.78zM7.073 56.264c0-.43.35-.779.78-.779h8.083a.78.78 0 010 1.559H7.852a.78.78 0 01-.779-.78z" fill="#0757F5"/></g></svg>