<svg width="113" height="90" xmlns="http://www.w3.org/2000/svg"><g fill-rule="nonzero" fill="none"><path fill="#C5DDFF" d="M13.741 6.074h91.63v78.741h-91.63z"/><path fill="#76A3F9" opacity=".3" d="M19 8.63h81.148v24.148H19z"/><path fill="#C5DDFF" d="M23.63 19.037h25.63v2.37H23.63z"/><path fill="#76A3F9" d="M23.63 26.519h25.63v2.37H23.63z"/><path d="M51.519 55.37c.074.186.148.334.222.519a7.259 7.259 0 01-.222-.519z" fill="#E5EEFD"/><path d="M41.815 48.889h-26.89c-5.184 0-9.592 3.778-10.406 8.889L.185 76.63c-.852 3.592 1.37 7.185 4.963 8 .482.11 1 .185 1.519.185h15.63l14.37-5.37 7.63-30.223a9.123 9.123 0 00-2.482-.333z" fill="#0757F5"/><path d="M59.852 56.26l-5.74 9.259-1.927-7.89a10.575 10.575 0 00-7.852-8.444l-.185.296L31.63 69.778l-9.297 15.037h29.223a5.328 5.328 0 004.555-2.556L61 74.333l7.889-12.74-9.037-5.334z" fill="#C5DDFF"/><path d="M68.111 52.444a.78.78 0 10-1.333-.814l-.741 1.259a.78.78 0 10-1.333-.815l-1.741 2.889-.26.407L62 56.52c-.889 1.481-.407 3.407 1.074 4.333 1.482.926 3.407.407 4.333-1.074l.593-.963.37-.593.186-.296.777-1.26 1.223-2c.222-.37.074-.851-.334-1.073-.37-.186-.778-.074-1.037.259l.334-.556a.78.78 0 00-.26-1.074c-.444-.259-.926-.148-1.148.222z" fill="#FFF"/><path d="M59.852 56.26l-5.74 9.259-1.927-7.89a10.575 10.575 0 00-7.852-8.444l-.185.296L31.63 69.778l-9.297 15.037h29.223a5.328 5.328 0 004.555-2.556L61 74.333l7.889-12.74-9.037-5.334zM28.37 19.926c5.63 0 10.223 4.555 10.223 10.185v3.37H18.148v-3.37c0-5.592 4.556-10.185 10.222-10.185z" fill="#0B37F4"/><path d="M24.148 44.111h8.185v4.778a4.062 4.062 0 01-4.074 4.074 4.062 4.062 0 01-4.074-4.074l-.037-4.778z" fill="#C5DDFF"/><path d="M24.148 44.111h8.185v4.778a4.062 4.062 0 01-4.074 4.074 4.062 4.062 0 01-4.074-4.074l-.037-4.778z" fill="#76A3F9" opacity=".3"/><path d="M28.26 54.26V53a4.062 4.062 0 004.073-4.074h1.26c-.037 2.926-2.408 5.333-5.334 5.333z" fill="#0B3BD3"/><path d="M28.26 54.26a5.374 5.374 0 01-5.371-5.371h1.26a4.062 4.062 0 004.073 4.074l.037 1.296z" fill="#0B3BD3"/><path d="M2.556 84.815H109.63a2.56 2.56 0 012.555 2.555 2.56 2.56 0 01-2.555 2.556H2.556A2.56 2.56 0 010 87.37a2.56 2.56 0 012.556-2.555z" fill="#5685EF"/><path d="M16 3.519h87.148a5.137 5.137 0 015.148 5.148H10.89c0-2.852 2.296-5.148 5.111-5.148z" fill="#0757F5"/><path fill="#76A3F9" d="M9.37 61.889h37.778v22.926H9.37z"/><path d="M58.185 0c-1.926 0-3.518 1.556-3.518 3.481h7A3.477 3.477 0 0058.185 0z" fill="#0757F5"/><path fill="#5685EF" d="M36.481 61.889L22.074 85.222l25.074 1.482V61.889z"/><path d="M28.296 53.704c-.518 0-1-.111-1.481-.297-.482.778-.222 1.815.555 2.297.778.481 1.815.222 2.297-.556a1.576 1.576 0 000-1.704c-.408.186-.89.26-1.37.26z" fill="#0B3BD3"/><path fill="#0B3BD3" d="M30.926 61.889l-2.667-7.63-2.703 7.63z"/><path d="M70.593 16.667c-8.89 0-16.112 7.222-16.112 16.11 0 8.89 7.223 16.112 16.112 16.112 8.888 0 16.11-7.222 16.11-16.111h-16.11V16.667z" fill="#FFF"/><path d="M70.593 16.667v16.11h16.11c0-8.888-7.222-16.11-16.11-16.11z" fill="#C5DDFF"/><circle fill="#C5DDFF" cx="28.444" cy="74.444" r="3.185"/><circle fill="#FFF" cx="28.444" cy="74.444" r="1.185"/><circle fill="#5685EF" cx="58.185" cy="3.519" r="1.296"/><path d="M37.26 32.963c-3.927 0-7.482-2.37-9.038-5.963a9.8 9.8 0 01-9 5.926 2.735 2.735 0 00-2.74 2.74c.037 1.52 1.259 2.741 2.777 2.741.445 4.445 4 8.112 8.556 8.297 4.889.222 9.037-3.445 9.444-8.26A2.808 2.808 0 0040 35.704a2.735 2.735 0 00-2.74-2.741z" fill="#FFF"/><path d="M28.26 42.74c1.925 0 3.518-1.555 3.518-3.48H24.74c0 1.925 1.555 3.48 3.518 3.48z" fill="#5685EF"/><path d="M23.63 34.667c-.556 0-1.037.444-1.037 1h2.037c0-.556-.445-1-1-1zM32.778 34.667c-.556 0-1.037.444-1.037 1.037h2.037c0-.593-.445-1.037-1-1.037z" fill="#0B37F4"/><path fill="#FF9601" d="M34.37 57.222h7.852v2.444H34.37z"/><path fill="#E5EEFD" opacity=".3" d="M39.37 57.222L37.89 59.63h4.333v-2.408z"/><path fill="#76A3F9" d="M92.519 53.407h7.63v31.444h-7.63z"/><path fill="#0757F5" d="M81.148 63.926h7.63v20.889h-7.63z"/><path fill="#0B37F4" d="M69.852 73.37h7.63v11.519h-7.63z"/><path fill="#FFF" d="M23.63 12.222h25.63v2.37H23.63z"/><path fill="#76A3F9" d="M90.444 12.222h5.889v5.889h-5.889z"/></g></svg>