<svg width="118" height="90" xmlns="http://www.w3.org/2000/svg"><g fill-rule="nonzero" fill="none"><path d="M58.263 88.85c9.812-.406 19.59.338 29.402.44 4.873.067 9.745.101 14.617-.339 3.688-.338 7.376-.71 11.064-.575l-3.79-42.462c-.372-5.008-4.601-8.865-9.609-8.797h-24.8c-4.771 0-8.831 3.485-9.576 8.188L57.045 89.12a4.896 4.896 0 011.218-.27z" fill="#5685EF"/><path d="M108.88 43.105c.067.17.169.305.203.474-.068-.17-.136-.305-.203-.474z" fill="#E5EEFD"/><path d="M79.071 74.944l23.211-37.523a8.767 8.767 0 00-2.3-.304H75.18c-4.77 0-8.83 3.485-9.575 8.221l-5.752 24.869-6.293.034v4.736l25.511-.033z" opacity=".3" fill="#76A3F9"/><path d="M87.665 6.97c7.004 0 12.688 5.684 12.688 12.688l-.067 15.022H74.91l.067-15.022c0-7.004 5.685-12.688 12.688-12.688z" fill="#0B37F4"/><path d="M74.944 34.68h2.943L92.368 7.883a12.6 12.6 0 00-8.898-.203c-1.59.576-3.045 1.422-4.297 2.572-.44.372-.846.812-1.218 1.252a12.674 12.674 0 00-2.978 8.154L74.91 34.68h.034z" opacity=".3" fill="#76A3F9"/><path d="M83.673 32.718h7.545v4.399a3.747 3.747 0 01-3.756 3.755 3.747 3.747 0 01-3.755-3.755v-4.399h-.034z" fill="#76A3F9"/><path d="M95.752 22.432c-3.62 0-6.902-2.165-8.357-5.48-1.421 3.315-4.703 5.446-8.29 5.48v4.128c0 4.466 3.451 8.357 7.918 8.56 4.601.237 8.492-3.315 8.729-7.917v-4.771z" fill="#5685EF"/><path d="M87.462 42.056v-1.184a3.747 3.747 0 003.756-3.755h1.15c0 2.74-2.199 4.94-4.906 4.94zM87.429 42.056c-2.707 0-4.94-2.199-4.94-4.94h1.15a3.769 3.769 0 003.756 3.756v1.184h.034z" fill="#FFF"/><path d="M51.429 35.73c.067.168.169.338.236.54a2.619 2.619 0 00-.236-.54z" fill="#E5EEFD"/><path d="M41.752 29.267H14.887A10.51 10.51 0 004.5 38.165L.17 56.944a6.72 6.72 0 005.007 8.018c.473.102.98.17 1.488.17h15.632l14.346-5.346 7.646-30.18a9.349 9.349 0 00-2.537-.34z" fill="#C5DDFF"/><path d="M59.786 36.575l-5.718 9.27-1.929-7.883c-.71-4.127-3.79-7.41-7.85-8.424l-.203.304-12.518 20.233-9.271 15.023h29.165c1.861 0 3.587-.948 4.568-2.538l4.906-7.917 7.85-12.722-9-5.346zM7.613 65.132h36.643v20.91H7.613z" fill="#C5DDFF"/><path d="M59.786 36.575l-5.718 9.27-1.929-7.883c-.71-4.127-3.79-7.41-7.85-8.424l-.203.304-12.518 20.233-2.538 4.094H12.113a.823.823 0 00-.812.812c0 .44.372.812.812.812h15.936L9.71 85.433l36.473-.339 4.06-19.996h1.185c1.86 0 3.586-.948 4.567-2.538l4.906-7.917 7.85-12.688-8.966-5.38z" opacity=".39" fill="#76A3F9"/><path d="M28.32.338c5.616 0 10.184 4.568 10.184 10.185v3.35H18.135v-3.35C18.135 4.906 22.703.338 28.32.338z" fill="#5685EF"/><path d="M27.981 8.459l.17-1.083L31.668.914a10.148 10.148 0 00-12.958 6.225 10.45 10.45 0 00-.576 3.384v3.35h6.767l3.08-5.414z" opacity=".3" fill="#E5EEFD"/><path d="M39.959 16.038a2.81 2.81 0 01-2.809 2.74l.068-5.447c1.523-.034 2.74 1.184 2.74 2.707zM24.124 24.496h8.188v4.77a4.086 4.086 0 01-4.094 4.095 4.086 4.086 0 01-4.094-4.094v-4.77z" fill="#C5DDFF"/><path d="M24.124 24.496h8.188v4.77a4.086 4.086 0 01-4.094 4.095 4.086 4.086 0 01-4.094-4.094v-4.77z" opacity=".3" fill="#76A3F9"/><path d="M37.218 13.33c-3.925 0-7.477-2.334-9.068-5.954a9.893 9.893 0 01-9 5.955v4.466c0 4.872 3.722 9.034 8.594 9.27 4.974.238 9.203-3.62 9.44-8.593V13.33h.034z" fill="#C5DDFF"/><path d="M28.218 34.613V33.36a4.086 4.086 0 004.094-4.094h1.252a5.357 5.357 0 01-5.346 5.346zM28.218 34.613a5.357 5.357 0 01-5.346-5.346h1.252a4.086 4.086 0 004.094 4.094v1.252z" fill="#0757F5"/><path d="M68.244 32.82a3.123 3.123 0 00-4.263 1.048l-2.368 3.79 5.38 3.214 2.3-3.722a3.143 3.143 0 00-1.049-4.33z" fill="#FFF"/><path d="M28.252 34.038a3.504 3.504 0 01-1.455-.305c-.474.778-.237 1.827.541 2.3.779.475 1.827.238 2.301-.54.305-.508.338-1.185.034-1.692-.474.169-.947.237-1.421.237z" fill="#0757F5"/><path fill="#0757F5" d="M30.891 48.959l-2.673-14.346-2.707 14.346 2.809 4.297z"/><path d="M16.444 16.038c.033 1.522 1.251 2.74 2.774 2.74l-.068-5.447a2.715 2.715 0 00-2.706 2.707z" fill="#C5DDFF"/><path d="M23.583 15.023a.997.997 0 00-1.015 1.015h2.03a1.04 1.04 0 00-1.015-1.015zM32.718 15.023a.997.997 0 00-1.015 1.015h2.03c0-.542-.44-1.015-1.015-1.015z" fill="#0B37F4"/><path d="M87.598 89.865L80.256 60.09a9.698 9.698 0 00-9.576-8.052h-24.8c-4.771 0-8.831 3.485-9.575 8.188L29.47 89.865h58.128z" fill="#0757F5"/><path d="M79.647 57.992c.067.17.135.339.203.474-.068-.135-.136-.304-.203-.474z" fill="#E5EEFD"/><path d="M2.368 85.128H115.14a2.354 2.354 0 012.369 2.368 2.354 2.354 0 01-2.369 2.369H2.37A2.354 2.354 0 010 87.496a2.354 2.354 0 012.368-2.368z" fill="#5685EF"/><path d="M52.748 85.128l20.267-32.786a8.767 8.767 0 00-2.3-.304H45.913c-4.771 0-8.831 3.485-9.576 8.188l-5.752 24.902h22.162z" opacity=".3" fill="#76A3F9"/><path d="M58.432 21.857c7.004 0 12.688 5.684 12.688 12.688l-.067 17.459H45.677l.067-17.459c0-7.004 5.685-12.654 12.688-12.688z" fill="#FF9601"/><path d="M63.135 22.805c-6.462-2.606-13.838.507-16.477 6.97a12.857 12.857 0 00-.914 4.77l-.067 17.459h1.658l15.8-29.2z" opacity=".3" fill="#E5EEFD"/><path d="M54.44 47.605h7.545v4.399c0 2.098-1.692 3.755-3.756 3.79h-.034a3.747 3.747 0 01-3.755-3.756v-4.433z" fill="#C5DDFF"/><path d="M66.519 37.32c-3.62 0-6.902-2.166-8.357-5.482-1.421 3.316-4.703 5.448-8.29 5.482v4.127c0 4.467 3.451 8.358 7.917 8.56 4.602.237 8.493-3.315 8.73-7.917v-4.77z" fill="#FFF"/><path d="M58.195 46.353a3.213 3.213 0 003.215-3.214H54.98a3.213 3.213 0 003.214 3.214z" fill="#5685EF"/><circle fill="#FF9601" cx="50.853" cy="22.94" r="5.177"/><path d="M58.195 56.944v-1.15c2.098 0 3.79-1.692 3.79-3.756h1.15c0 2.706-2.199 4.906-4.94 4.906z" fill="#FFF"/><path d="M58.195 56.944c-2.706 0-4.94-2.2-4.94-4.94h1.185a3.769 3.769 0 003.755 3.755v1.185zM40.974 60.327c.507-.034.913-.474.88-.981a.946.946 0 00-.88-.88h-1.692c.507.034.947-.372.981-.88.034-.507-.372-.947-.88-.98h-6.191a3.697 3.697 0 00-3.688 3.687 3.697 3.697 0 003.688 3.688h7.037c.508-.034.914-.473.88-.981a.946.946 0 00-.88-.88h.745c.507-.034.913-.473.88-.98-.034-.407-.407-.78-.88-.813z" fill="#FFF"/><path fill="#C5DDFF" d="M11.335 55.793h20.977v9.338H11.335z"/><path fill="#0B37F4" d="M26.662 72.203H37.32v12.925H26.662z"/><path d="M30.35 20.368a.413.413 0 00-.305.136 2.563 2.563 0 01-3.62.067l-.068-.067a.429.429 0 00-.304-.136.39.39 0 00-.406.406c0 .102.033.203.101.271a3.33 3.33 0 004.838 0c.17-.17.136-.406 0-.575-.033-.068-.135-.102-.236-.102z" fill="#0B3BD3"/><path d="M83.2 24.36a.946.946 0 00-.948.948h1.895a.968.968 0 00-.948-.947zM91.692 24.36a.946.946 0 00-.948.948h1.895a.946.946 0 00-.947-.947z" fill="#0B37F4"/><path d="M89.459 29.335a.308.308 0 00-.271.135 2.36 2.36 0 01-3.35.068l-.067-.068c-.068-.068-.17-.135-.271-.135a.375.375 0 00-.372.372c0 .101.034.203.101.27 1.185 1.252 3.18 1.286 4.399.102l.101-.102c.136-.135.136-.372 0-.54a.384.384 0 00-.27-.102z" fill="#0B3BD3"/><path d="M53.628 38.808a.997.997 0 00-1.015 1.015h2.03a.997.997 0 00-1.015-1.015zM62.797 38.808a.997.997 0 00-1.015 1.015h2.03c0-.575-.474-1.015-1.015-1.015z" fill="#76A3F9"/><path fill="#0B37F4" d="M91.286 74.335h13.838v10.726H91.286z"/><path d="M98.695 75.992c-1.894-4.669.373-10.015 5.042-11.91 1.895 4.67-.372 10.016-5.042 11.91z" fill="#0B37F4"/><path d="M97.782 76.805c-6.632-2.809-9.744-10.49-6.936-17.12 6.631 2.807 9.744 10.488 6.936 17.12z" fill="#0B37F4"/><circle fill="#0B37F4" cx="46.083" cy="82.793" r="2.335"/><path fill="#FF9601" d="M62.086 62.662h7.173v2.199h-7.173z"/><path d="M66.654 62.662l-1.353 2.233h3.958v-2.233z" opacity=".3" fill="#E5EEFD"/></g></svg>